<?xml version="1.0" standalone="no"?>
<!DOCTYPE svg PUBLIC "-//W3C//DTD SVG 20010904//EN"
 "http://www.w3.org/TR/2001/REC-SVG-20010904/DTD/svg10.dtd">
<svg version="1.0" xmlns="http://www.w3.org/2000/svg"
 width="885.000000pt" height="885.000000pt" viewBox="0 0 885.000000 885.000000"
 preserveAspectRatio="xMidYMid meet">
<metadata>
Created by potrace 1.11, written by Peter Selinger 2001-2013
</metadata>
<g transform="translate(0.000000,885.000000) scale(0.100000,-0.100000)"
fill="#000000" stroke="none">
<path d="M4138 8834 c-2 -1 -43 -5 -92 -9 -49 -4 -98 -8 -110 -10 -11 -2 -43
-6 -71 -10 -27 -3 -77 -10 -110 -15 -33 -5 -78 -12 -100 -16 -22 -3 -80 -15
-130 -25 -49 -11 -98 -21 -107 -22 -9 -1 -15 -4 -12 -8 2 -4 21 -3 41 1 21 5
40 6 43 2 7 -10 135 -35 180 -35 19 0 87 19 150 42 63 24 126 45 140 48 13 2
28 10 32 16 4 7 8 8 8 4 0 -4 8 -4 18 1 27 15 145 25 137 13 -3 -6 -1 -11 4
-11 6 0 11 8 11 18 0 15 -22 26 -32 16z m-161 -40 c-3 -3 -12 -4 -19 -1 -8 3
-5 6 6 6 11 1 17 -2 13 -5z"/>
<path d="M4216 8829 c3 -5 -4 -9 -16 -9 -36 0 -17 -24 26 -33 21 -5 77 -20
124 -34 l86 -25 79 26 c44 15 97 29 118 33 20 3 40 10 43 14 3 5 10 6 16 3 7
-4 8 -2 4 5 -6 9 8 10 56 6 35 -3 74 -9 88 -12 14 -4 29 -5 33 -4 5 1 6 -3 2
-9 -3 -5 2 -10 12 -10 18 0 174 -53 248 -84 37 -16 64 -16 120 0 28 8 63 14
91 16 18 1 31 5 28 9 -2 4 13 6 33 3 28 -3 23 0 -17 10 -30 8 -71 18 -90 21
-19 3 -42 7 -50 10 -8 2 -33 6 -55 10 -22 3 -65 10 -95 15 -30 5 -77 12 -105
15 -27 3 -64 8 -80 10 -17 2 -73 7 -125 10 -52 4 -99 9 -104 12 -5 4 -6 1 -2
-5 4 -7 1 -12 -8 -12 -8 0 -23 -3 -33 -6 -11 -3 -9 0 6 9 20 12 -4 14 -208 14
-130 0 -228 -3 -225 -8z m107 -16 c-7 -2 -19 -2 -25 0 -7 3 -2 5 12 5 14 0 19
-2 13 -5z m260 0 c-7 -2 -21 -2 -30 0 -10 3 -4 5 12 5 17 0 24 -2 18 -5z"/>
<path d="M3945 8756 c-71 -24 -146 -51 -165 -60 l-35 -16 50 5 c28 3 68 7 90
9 22 3 90 8 150 12 61 4 126 8 145 9 19 2 67 3 105 4 69 2 70 2 38 16 -28 12
-233 66 -244 64 -2 0 -62 -19 -134 -43z"/>
<path d="M4715 8785 c-33 -7 -94 -24 -135 -38 l-75 -25 75 -2 c149 -4 411 -24
473 -36 45 -9 30 11 -25 34 -49 19 -186 64 -233 75 -11 3 -47 -1 -80 -8z"/>
<path d="M3302 8696 c-30 -6 -51 -14 -47 -18 4 -4 -3 -4 -16 -1 -17 5 -20 3
-14 -7 5 -9 4 -11 -4 -6 -11 7 -123 -23 -251 -69 -94 -33 -100 -36 -100 -45 0
-4 8 -7 18 -7 9 1 33 -2 54 -6 31 -6 50 -1 130 37 51 24 118 54 148 67 30 13
58 27 61 32 4 5 9 5 13 -1 3 -5 -9 -15 -27 -23 -51 -20 -217 -99 -217 -103 0
-2 33 5 73 15 39 10 86 21 102 24 17 3 55 12 85 20 54 13 243 47 268 48 30 1
7 16 -40 27 -100 21 -137 23 -178 6 -48 -19 -50 -19 -50 -5 0 5 4 8 9 5 4 -3
17 1 27 9 10 8 17 14 14 14 -3 -1 -29 -6 -58 -13z"/>
<path d="M4117 8694 c-1 -1 -47 -5 -102 -8 -128 -9 -205 -16 -230 -21 -11 -2
-27 -4 -35 -5 -8 0 10 -12 41 -25 32 -13 91 -43 133 -65 43 -22 82 -40 87 -40
6 0 43 19 82 42 40 23 115 62 167 85 l95 44 -118 -3 c-65 -2 -119 -4 -120 -4z"/>
<path d="M4660 8628 c80 -40 155 -80 168 -88 20 -14 29 -11 125 36 56 28 118
59 137 67 19 9 28 17 20 18 -8 0 -24 2 -35 4 -11 3 -54 7 -95 11 -41 3 -88 8
-105 10 -16 2 -104 6 -195 10 l-165 5 145 -73z"/>
<path d="M5330 8681 c-68 -18 -66 -23 15 -36 73 -12 329 -65 403 -84 39 -11
72 -17 72 -15 0 5 -122 61 -242 110 -118 49 -147 52 -248 25z"/>
<path d="M5525 8693 c6 -6 37 -20 70 -33 77 -30 154 -64 231 -101 41 -20 69
-28 86 -24 32 8 59 13 78 15 8 0 -65 28 -164 61 -98 33 -185 58 -193 55 -8 -3
-11 -1 -8 4 3 6 0 10 -7 11 -7 0 -20 2 -28 5 -49 13 -74 16 -65 7z"/>
<path d="M4295 8630 c-66 -32 -139 -70 -161 -83 l-42 -23 340 -1 339 0 -53 30
c-99 55 -271 137 -287 137 -9 0 -70 -27 -136 -60z"/>
<path d="M3559 8636 c-2 -2 -26 -7 -54 -10 -27 -4 -57 -9 -65 -11 -8 -2 -31
-7 -50 -10 -67 -11 -328 -70 -360 -81 -9 -3 11 -19 55 -43 39 -20 79 -43 91
-50 18 -12 28 -9 93 30 112 69 131 79 216 122 89 45 90 45 83 52 -2 3 -7 3 -9
1z"/>
<path d="M3560 8594 c-106 -56 -291 -167 -286 -171 1 -2 38 3 82 11 43 8 95
17 114 20 19 2 69 9 110 15 118 16 280 33 329 34 7 0 3 8 -10 18 -33 25 -225
119 -241 118 -7 0 -51 -20 -98 -45z"/>
<path d="M5180 8633 c-34 -12 -216 -105 -227 -117 -10 -9 -9 -12 5 -12 25 -1
173 -15 202 -19 14 -2 48 -7 75 -10 90 -10 139 -17 245 -35 58 -10 106 -17
108 -15 9 9 -364 216 -385 214 -5 0 -15 -3 -23 -6z"/>
<path d="M5350 8599 c47 -23 137 -74 200 -112 l115 -69 30 18 c16 10 56 33 89
50 32 17 54 34 50 37 -12 7 -165 43 -314 73 -153 32 -144 30 -205 39 l-50 7
85 -43z"/>
<path d="M5995 8515 l-40 -12 70 -22 c128 -41 300 -104 310 -114 7 -7 3 -7
-10 -3 -225 84 -339 120 -330 106 4 -6 10 -10 15 -10 11 0 145 -83 279 -172
l103 -70 42 42 c25 27 36 44 29 47 -7 3 -13 9 -13 14 0 6 9 5 21 -1 11 -6 28
-10 37 -8 10 2 -5 12 -36 25 -50 21 -52 21 -42 2 7 -13 7 -19 0 -19 -5 0 -10
5 -10 11 0 5 -3 8 -7 6 -5 -3 -21 1 -38 8 -16 7 -24 14 -17 14 7 1 22 -4 33
-9 10 -6 19 -7 19 -2 0 12 -94 66 -195 112 -49 22 -99 45 -110 50 -33 16 -68
17 -110 5z"/>
<path d="M2760 8509 c0 -5 -4 -8 -8 -5 -9 6 -238 -107 -263 -130 -8 -8 -19
-11 -22 -7 -4 3 -7 1 -7 -6 0 -7 -4 -10 -8 -7 -8 5 -84 -18 -106 -31 -5 -4 -1
-9 9 -13 11 -4 25 -1 33 6 7 7 19 11 28 7 9 -3 14 0 12 8 -2 8 7 14 22 14 14
1 48 11 75 22 28 12 91 36 140 53 50 18 97 35 105 38 8 3 17 6 20 7 3 0 30 9
60 19 45 16 51 21 35 27 -30 12 -125 11 -125 -2z"/>
<path d="M4366 8493 c-1 -1 -59 -3 -129 -5 -70 -1 -132 -5 -137 -8 -5 -3 21
-26 58 -50 37 -24 113 -79 170 -122 l103 -78 78 59 c43 33 119 89 170 124 50
36 85 67 78 69 -14 5 -386 15 -391 11z"/>
<path d="M2900 8470 c-14 -11 -28 -20 -32 -20 -10 0 -180 -109 -273 -174 -38
-27 -61 -46 -50 -42 58 21 401 116 470 131 44 10 83 20 87 24 9 8 -117 87
-152 95 -17 4 -33 -1 -50 -14z"/>
<path d="M5866 8465 c-26 -14 -63 -36 -83 -49 l-36 -25 39 -9 c22 -6 93 -24
159 -41 106 -26 313 -86 370 -107 33 -12 -17 25 -160 118 -130 84 -221 138
-235 138 -4 0 -28 -11 -54 -25z"/>
<path d="M2700 8421 c-91 -31 -182 -65 -203 -74 -21 -9 -45 -14 -55 -11 -14 5
-15 4 -2 -5 12 -8 9 -12 -17 -17 -18 -4 -33 -9 -33 -13 0 -3 19 -23 42 -44
l41 -38 116 78 c64 42 156 101 205 130 50 29 86 53 80 52 -5 0 -83 -26 -174
-58z"/>
<path d="M3828 8465 c-2 -1 -40 -6 -85 -9 -46 -4 -91 -9 -100 -10 -10 -2 -45
-7 -78 -11 -105 -13 -102 -13 -249 -38 l-69 -12 59 -45 c32 -24 91 -72 130
-106 l71 -62 34 26 c19 15 36 29 39 33 3 3 78 58 167 122 159 113 162 116 123
115 -21 0 -40 -2 -42 -3z"/>
<path d="M4799 8421 c-108 -75 -271 -202 -266 -208 3 -2 65 -6 139 -8 124 -3
286 -12 368 -20 19 -2 71 -6 114 -10 44 -3 83 -8 87 -11 4 -2 10 0 13 5 6 9
-166 144 -309 243 l-80 55 -66 -46z"/>
<path d="M5050 8400 c58 -40 150 -108 206 -150 l101 -78 39 37 c22 20 79 67
127 105 48 38 86 70 85 72 -2 1 -21 5 -43 8 -22 4 -65 11 -95 16 -30 5 -75 12
-100 15 -25 3 -56 8 -70 10 -14 2 -50 7 -80 10 -30 3 -66 8 -80 10 -14 2 -63
7 -110 10 l-85 7 105 -72z"/>
<path d="M3940 8428 c-173 -120 -337 -248 -330 -257 3 -3 7 -5 10 -4 3 0 41 4
85 8 44 3 94 8 110 10 36 4 243 15 380 20 55 2 109 4 120 5 17 1 15 5 -15 31
-92 80 -286 219 -304 219 -6 -1 -31 -15 -56 -32z"/>
<path d="M5619 8297 c-42 -34 -98 -83 -125 -109 -44 -43 -47 -48 -26 -49 12
-1 25 -2 30 -3 4 -1 32 -6 62 -10 30 -4 114 -18 185 -31 72 -13 145 -27 163
-30 19 -3 72 -14 118 -25 47 -11 89 -20 95 -20 18 0 -258 221 -396 317 l-31
21 -75 -61z"/>
<path d="M2960 8324 c-52 -13 -131 -34 -175 -46 -44 -13 -82 -23 -85 -23 -20
-2 -190 -59 -190 -64 0 -3 17 -24 38 -46 20 -22 52 -60 70 -83 19 -23 38 -42
43 -42 6 0 42 28 82 62 39 34 134 108 210 165 76 57 130 103 120 102 -10 0
-61 -12 -113 -25z"/>
<path d="M3064 8283 c-103 -77 -208 -159 -244 -190 -14 -12 -41 -35 -60 -52
l-35 -30 75 19 c41 10 86 21 100 24 132 25 363 66 395 70 81 12 115 18 115 22
0 14 -228 204 -245 204 -7 0 -53 -30 -101 -67z"/>
<path d="M5846 8294 c76 -54 236 -179 317 -247 l39 -32 43 50 c23 28 58 68 78
90 l35 39 -106 34 c-121 38 -444 122 -468 122 -9 0 19 -25 62 -56z"/>
<path d="M2218 8251 c-25 -16 -49 -35 -53 -42 -6 -8 -4 -10 5 -4 9 6 11 4 6
-4 -5 -7 -14 -10 -22 -7 -8 3 -17 -1 -20 -9 -4 -8 -10 -12 -15 -9 -5 3 -9 0
-9 -5 0 -6 -6 -11 -14 -11 -8 0 -21 -7 -30 -15 -8 -9 -17 -15 -18 -14 -8 3
-58 -25 -58 -33 0 -5 -3 -7 -7 -5 -5 3 -30 -11 -58 -32 -49 -35 -63 -63 -46
-90 7 -10 25 0 82 46 108 85 149 115 149 106 0 -4 -22 -23 -48 -40 -26 -18
-67 -51 -92 -73 l-45 -40 75 38 c64 33 328 147 383 166 17 6 17 7 1 29 -10 13
-29 32 -43 42 -28 21 -21 24 -145 -63 -42 -29 -76 -50 -76 -48 0 3 21 19 46
37 35 24 43 34 33 41 -10 6 -7 7 10 3 15 -5 21 -4 17 4 -4 6 11 19 34 31 22
11 40 23 40 25 0 14 -41 2 -82 -24z"/>
<path d="M6560 8275 c0 -3 16 -11 36 -20 19 -8 33 -18 30 -23 -2 -4 12 -19 32
-32 58 -39 233 -170 276 -207 22 -18 43 -33 48 -33 4 0 8 15 8 33 0 30 -7 36
-102 97 -56 36 -106 67 -112 69 -6 2 -20 11 -30 20 -16 13 -18 13 -12 1 4 -8
0 -6 -8 4 -9 11 -16 16 -16 10 0 -5 -5 -1 -10 8 -17 28 -140 93 -140 73z"/>
<path d="M6497 8222 l-37 -38 133 -53 c72 -30 176 -76 231 -103 54 -27 100
-48 102 -46 4 5 -112 95 -231 181 -44 32 -79 62 -78 66 1 5 -4 12 -13 15 -10
4 -13 2 -8 -6 4 -6 -3 -4 -17 5 -33 24 -40 22 -82 -21z"/>
<path d="M2240 8230 c-9 -6 -10 -10 -3 -10 6 0 15 5 18 10 8 12 4 12 -15 0z"/>
<path d="M4177 8153 c-1 0 -68 -4 -149 -8 -80 -3 -163 -8 -185 -10 -161 -13
-204 -17 -220 -20 -10 -2 -24 -4 -31 -4 -7 -1 36 -50 95 -109 60 -60 134 -136
166 -170 33 -34 62 -62 66 -62 5 0 46 37 92 83 46 45 136 129 199 186 63 57
116 107 118 111 2 5 -145 9 -151 3z"/>
<path d="M4535 8150 c-2 -4 24 -30 58 -58 34 -28 127 -114 206 -190 l144 -139
61 65 c33 36 110 114 170 174 60 59 105 108 100 109 -5 0 -16 2 -25 4 -9 1
-56 6 -105 10 -49 4 -105 8 -124 10 -156 14 -479 24 -485 15z"/>
<path d="M6361 8073 c-39 -48 -71 -90 -71 -93 0 -3 53 -21 118 -39 64 -19 191
-60 281 -92 90 -33 165 -59 167 -59 5 0 -55 57 -132 125 -43 38 -90 79 -104
91 -27 24 -66 57 -141 117 l-47 37 -71 -87z"/>
<path d="M2225 8089 c-139 -58 -335 -150 -335 -155 0 -9 52 -140 58 -146 4 -4
30 14 57 40 85 79 206 185 288 251 42 35 77 65 77 67 0 5 17 12 -145 -57z"/>
<path d="M2335 8083 c-169 -137 -343 -299 -310 -288 11 4 83 29 160 57 77 27
197 66 267 87 l128 37 -71 87 c-39 48 -76 87 -83 86 -6 0 -47 -30 -91 -66z"/>
<path d="M6490 8146 c0 -2 28 -25 63 -52 67 -53 284 -242 331 -289 23 -22 31
-26 34 -15 3 8 13 32 23 53 10 21 20 51 24 66 5 25 2 30 -32 46 -21 10 -76 37
-124 60 -47 23 -98 47 -115 53 -16 6 -68 26 -116 46 -49 19 -88 33 -88 32z"/>
<path d="M4395 8109 c-11 -11 -101 -97 -199 -192 l-179 -172 411 0 411 0 -32
34 c-143 149 -362 351 -380 350 -6 0 -21 -9 -32 -20z"/>
<path d="M3335 8080 c-22 -4 -62 -11 -90 -14 -106 -13 -449 -79 -503 -97 l-32
-11 52 -66 c29 -37 55 -69 58 -72 3 -3 31 -40 63 -82 32 -43 60 -78 63 -78 2
0 49 44 102 98 110 110 307 293 328 305 15 8 19 28 7 26 -5 -1 -26 -5 -48 -9z"/>
<path d="M5511 8043 c97 -87 171 -156 288 -270 64 -62 116 -113 117 -113 5 0
235 302 232 304 -1 2 -32 9 -68 17 -36 7 -67 14 -70 14 -16 4 -88 18 -105 21
-11 2 -67 13 -125 23 -101 19 -143 26 -220 37 -19 2 -50 7 -69 10 l-34 6 54
-49z"/>
<path d="M3455 8053 c-94 -80 -301 -278 -385 -368 l-35 -38 50 6 c28 4 102 13
165 21 63 8 142 17 175 21 33 3 74 8 90 10 32 4 197 17 255 20 19 1 35 6 35
12 0 14 -191 221 -291 315 l-29 27 -30 -26z"/>
<path d="M5259 7962 c-157 -162 -212 -222 -206 -229 3 -3 32 -6 64 -8 60 -4
161 -13 223 -20 19 -2 66 -7 103 -10 37 -4 76 -8 85 -10 9 -1 46 -6 82 -10 36
-3 72 -8 80 -10 8 -2 40 -7 70 -10 30 -4 60 -10 65 -13 37 -22 -163 180 -325
328 -51 47 -99 91 -106 98 -7 6 -14 12 -16 12 -3 0 -56 -53 -119 -118z"/>
<path d="M1735 7927 c-66 -50 -157 -124 -253 -208 -24 -21 -45 -44 -46 -51 -1
-7 -7 -23 -14 -35 -6 -11 -14 -47 -17 -80 l-5 -58 108 110 c137 140 262 258
268 252 3 -2 -28 -35 -68 -73 -74 -71 -176 -173 -238 -239 l-35 -38 75 43 c41
23 141 74 221 113 l146 72 -25 78 c-24 75 -25 77 -43 61 -11 -10 -22 -14 -26
-11 -8 9 -96 -41 -227 -130 -59 -41 -110 -73 -112 -71 -2 2 5 12 16 21 11 9
20 14 20 12 0 -3 24 12 53 33 61 45 173 117 239 155 43 25 47 31 46 62 -1 19
-4 35 -7 35 -3 0 -38 -24 -76 -53z"/>
<path d="M7045 7948 c0 -18 8 -35 20 -44 11 -8 20 -19 20 -24 0 -4 4 -12 9
-17 5 -5 6 -3 2 5 -4 6 -3 12 1 12 13 0 219 -135 227 -149 4 -6 -43 21 -104
61 -61 39 -113 68 -117 64 -4 -3 4 -14 18 -23 13 -9 95 -87 182 -174 150 -150
157 -156 157 -126 0 80 -10 101 -66 141 -29 21 -51 43 -48 47 6 10 -59 71
-180 167 -120 97 -121 97 -121 60z"/>
<path d="M2420 7885 c-97 -28 -362 -116 -423 -141 -13 -5 -17 -13 -13 -30 10
-37 110 -239 118 -236 11 4 446 442 439 442 -3 -1 -58 -16 -121 -35z"/>
<path d="M2603 7907 c-6 -7 -73 -73 -150 -147 -142 -139 -285 -291 -280 -296
2 -2 32 5 68 16 53 17 237 61 314 76 11 2 82 16 158 32 l138 28 -73 100 c-109
149 -152 204 -158 204 -3 -1 -10 -6 -17 -13z"/>
<path d="M6134 7784 c-54 -75 -105 -142 -112 -150 -16 -17 -8 -21 64 -33 32
-6 70 -13 84 -16 14 -3 39 -8 55 -11 61 -10 292 -65 377 -88 82 -23 87 -23 78
-6 -13 24 -427 440 -438 440 -5 0 -53 -61 -108 -136z"/>
<path d="M6403 7833 c105 -103 242 -243 309 -316 26 -28 49 -49 51 -47 3 3 33
63 66 134 60 126 63 145 27 146 -4 0 -50 16 -102 35 -88 33 -415 135 -433 135
-5 0 32 -39 82 -87z"/>
<path d="M7011 7816 c-22 -69 -22 -96 -1 -96 15 0 194 -88 305 -149 81 -46
100 -53 89 -36 -17 26 -354 355 -363 355 -4 0 -17 -33 -30 -74z"/>
<path d="M7351 7717 c2 -1 15 -11 29 -22 l25 -20 -19 23 c-11 12 -24 22 -29
22 -6 0 -8 -1 -6 -3z"/>
<path d="M1860 7649 c-19 -21 -68 -73 -109 -116 -78 -83 -261 -297 -261 -306
0 -3 53 16 118 43 131 53 380 142 400 143 6 0 12 1 12 3 0 1 -22 52 -50 113
-27 61 -50 115 -50 119 0 5 -6 15 -12 24 -11 13 -17 10 -48 -23z"/>
<path d="M6907 7563 c-31 -70 -57 -132 -57 -138 0 -5 53 -27 118 -48 106 -35
278 -100 375 -142 l39 -16 -15 22 c-24 33 -236 274 -324 367 l-78 83 -58 -128z"/>
<path d="M1830 7673 c-52 -18 -241 -111 -347 -171 l-83 -47 6 -45 c16 -134 23
-183 28 -187 2 -2 25 22 52 54 27 32 51 60 54 63 3 3 18 21 34 40 40 49 193
216 241 262 21 21 37 38 35 37 -3 0 -12 -3 -20 -6z"/>
<path d="M4206 7673 c-1 -2 -44 -3 -94 -4 -51 0 -92 -4 -92 -7 0 -4 48 -64
108 -133 126 -149 169 -199 240 -288 29 -36 56 -66 61 -66 5 0 35 32 66 70 86
105 304 365 315 375 3 3 13 14 22 26 l18 20 -108 3 c-141 4 -533 7 -536 4z"/>
<path d="M7022 7675 c61 -61 224 -244 320 -357 45 -54 84 -96 86 -94 5 6 32
178 32 208 0 24 -12 34 -100 83 -93 52 -324 165 -337 165 -4 0 -4 -2 -1 -5z"/>
<path d="M3799 7656 c-2 -2 -60 -7 -129 -11 -69 -4 -127 -8 -130 -10 -3 -2
-43 -6 -90 -10 -47 -4 -98 -9 -115 -11 -16 -2 -55 -6 -85 -10 -30 -3 -57 -7
-60 -9 -3 -2 -39 -6 -80 -10 -41 -4 -78 -10 -83 -14 -4 -4 61 -102 144 -217
83 -115 155 -216 160 -224 8 -13 12 -11 30 10 143 173 331 388 409 469 23 23
43 51 38 51 -3 0 -7 -2 -9 -4z"/>
<path d="M5057 7654 c-3 -3 5 -15 17 -28 72 -76 140 -151 201 -221 39 -44 72
-82 75 -85 3 -3 38 -45 79 -95 41 -49 78 -94 83 -100 6 -7 12 -5 18 5 5 8 77
109 160 224 83 115 147 212 143 216 -4 4 -30 10 -58 14 -27 3 -68 8 -90 11
-22 3 -60 8 -85 11 -25 3 -65 7 -90 10 -25 2 -63 6 -85 9 -43 5 -97 10 -240
20 -49 4 -97 9 -107 10 -9 2 -18 1 -21 -1z"/>
<path d="M1357 7602 c-15 -16 -24 -32 -20 -37 5 -4 3 -5 -3 -2 -11 6 -99 -76
-93 -86 2 -3 -10 -20 -26 -39 -17 -18 -38 -44 -48 -58 -9 -13 -17 -21 -17 -17
0 5 -14 -1 -30 -13 -33 -23 -74 -93 -62 -105 4 -5 1 -5 -6 -1 -7 4 -15 1 -18
-8 -3 -9 -10 -14 -14 -11 -4 2 -39 -35 -77 -83 -211 -265 -417 -606 -555 -922
-27 -63 -59 -135 -70 -159 -26 -58 -17 -63 13 -6 13 25 28 45 32 45 5 0 5 5 2
10 -4 6 -3 10 2 8 4 -1 45 35 91 80 91 89 82 68 107 237 2 17 11 51 19 77 8
27 10 45 5 42 -21 -13 -4 24 48 103 19 29 38 51 43 48 4 -2 23 10 42 28 76 70
115 104 149 130 30 22 38 37 45 75 4 26 8 52 10 57 11 46 16 74 19 95 1 14 14
43 29 64 14 21 26 43 26 47 0 5 3 8 8 8 22 -4 42 2 37 11 -3 6 0 10 9 10 8 0
16 3 18 8 6 13 110 97 190 152 43 29 80 61 82 69 7 26 20 115 19 129 0 6 3 12
7 12 4 0 10 7 14 15 8 21 4 19 -27 -13z m-57 -75 c0 -2 -12 -14 -27 -28 l-28
-24 24 28 c23 25 31 32 31 24z m-487 -612 c-3 -9 -8 -14 -10 -11 -3 3 -2 9 2
15 9 16 15 13 8 -4z m-352 -602 c-12 -20 -14 -14 -5 12 4 9 9 14 11 11 3 -2 0
-13 -6 -23z m-30 -66 c-10 -9 -11 -8 -5 6 3 10 9 15 12 12 3 -3 0 -11 -7 -18z"/>
<path d="M3839 7557 c-105 -115 -218 -245 -298 -342 -41 -50 -81 -98 -90 -108
-14 -17 -12 -18 34 -13 28 3 97 8 155 11 58 3 134 8 170 10 36 3 164 7 285 11
121 3 221 6 222 7 2 3 -107 141 -185 237 -101 122 -215 255 -221 257 -3 2 -36
-30 -72 -70z"/>
<path d="M4863 7531 c-115 -136 -323 -395 -320 -398 2 -1 104 -5 227 -8 124
-4 252 -8 285 -10 33 -2 112 -6 175 -9 63 -4 133 -9 154 -12 37 -5 39 -4 25
13 -21 27 -152 186 -164 199 -5 6 -37 42 -70 80 -129 147 -218 244 -224 243
-3 0 -43 -44 -88 -98z"/>
<path d="M7505 7535 c7 -30 11 -55 9 -55 -16 0 24 -44 64 -72 26 -17 49 -35
50 -40 2 -4 8 -8 13 -8 5 0 17 -6 26 -14 10 -8 46 -37 79 -65 34 -27 65 -47
69 -43 5 4 5 2 1 -5 -7 -13 10 -28 18 -15 8 14 -47 78 -241 277 -102 106 -103
106 -88 40z"/>
<path d="M2789 7536 c-2 -2 -22 -7 -43 -10 -21 -4 -48 -8 -60 -11 -12 -3 -32
-7 -46 -9 -55 -9 -389 -85 -442 -100 l-56 -17 30 -57 c35 -66 132 -250 162
-304 11 -21 22 -38 26 -38 3 0 45 50 94 110 48 61 93 116 100 123 6 7 34 39
61 71 28 33 61 71 74 85 116 127 142 161 124 161 -11 0 -22 -2 -24 -4z"/>
<path d="M6075 7489 c44 -48 103 -114 189 -214 15 -16 72 -87 129 -157 56 -70
105 -127 109 -127 3 -1 39 61 79 137 39 75 87 165 106 199 l33 62 -22 7 c-13
4 -27 9 -33 10 -5 1 -75 18 -155 38 -127 30 -322 71 -445 92 l-40 7 50 -54z"/>
<path d="M2885 7497 c-212 -239 -435 -506 -435 -520 0 -8 29 -5 102 8 9 2 38
7 65 11 26 3 57 8 68 10 53 10 363 49 475 60 36 3 67 7 68 9 2 2 -11 25 -29
52 -55 82 -281 403 -283 403 -1 0 -15 -15 -31 -33z"/>
<path d="M5789 7311 c-85 -122 -155 -225 -157 -230 -1 -5 30 -12 70 -15 71 -7
95 -10 188 -21 57 -7 194 -25 240 -31 45 -7 64 -10 184 -29 54 -8 100 -14 102
-13 2 3 -132 173 -189 238 -12 14 -49 57 -82 95 -74 87 -109 126 -161 183
l-40 45 -155 -222z"/>
<path d="M1213 7331 c-153 -111 -212 -163 -223 -198 -20 -58 -40 -184 -29
-177 5 3 48 58 96 122 48 64 122 158 163 207 71 84 96 116 88 114 -2 0 -45
-31 -95 -68z"/>
<path d="M1325 7386 c-6 -8 -43 -52 -82 -99 -72 -85 -253 -322 -253 -331 0 -2
48 25 106 60 58 36 144 84 190 107 l85 42 -7 45 c-9 56 -12 93 -13 148 -1 43
-9 52 -26 28z"/>
<path d="M7519 7393 c0 -5 -2 -24 -4 -43 -3 -32 -12 -115 -18 -164 -1 -14 21
-30 93 -68 81 -43 161 -89 270 -157 21 -14 19 -8 -14 39 -35 48 -73 99 -113
150 -48 62 -205 250 -209 250 -2 0 -4 -3 -5 -7z"/>
<path d="M7570 7374 c14 -16 28 -31 31 -34 14 -12 209 -262 253 -323 27 -38
50 -66 52 -64 6 5 -22 157 -34 188 -11 27 -124 125 -232 200 -89 62 -99 67
-70 33z"/>
<path d="M6887 7326 c10 -13 72 -91 139 -173 66 -83 156 -198 199 -258 l79
-107 14 39 c31 89 93 314 88 322 -9 13 -321 135 -436 169 -19 6 -50 15 -68 21
l-33 10 18 -23z"/>
<path d="M1790 7281 c-168 -60 -291 -108 -323 -127 -15 -8 -16 -15 -8 -37 6
-15 13 -38 15 -50 6 -27 77 -271 81 -275 2 -2 36 41 75 95 65 87 246 320 260
333 3 3 27 31 53 63 37 44 44 57 30 56 -10 0 -92 -26 -183 -58z"/>
<path d="M1979 7249 c-41 -51 -79 -97 -85 -103 -23 -24 -274 -360 -271 -362 2
-2 50 10 108 26 90 25 157 42 219 55 8 2 42 10 75 18 33 9 98 23 145 32 47 10
87 19 89 20 3 4 -186 385 -198 398 -4 4 -41 -34 -82 -84z"/>
<path d="M6700 7139 c-56 -111 -100 -202 -98 -204 2 -1 52 -12 113 -25 119
-24 391 -90 470 -114 27 -8 51 -14 52 -12 9 8 -419 556 -433 556 -2 0 -49 -90
-104 -201z"/>
<path d="M7897 7146 c9 -16 19 -39 20 -50 1 -12 11 -61 21 -110 l18 -90 65
-54 c35 -30 81 -70 102 -89 40 -36 83 -53 74 -29 -14 36 -119 186 -127 181 -5
-3 -12 0 -16 6 -4 8 -3 9 4 5 22 -13 12 6 -34 70 -25 36 -49 62 -54 59 -5 -3
-12 0 -16 6 -4 8 -3 9 4 5 7 -4 12 -3 12 2 0 14 -26 33 -34 25 -4 -4 -5 -1 -2
7 3 8 -8 31 -25 50 -26 30 -28 31 -12 6z m224 -323 c13 -16 12 -17 -3 -4 -10
7 -18 15 -18 17 0 8 8 3 21 -13z"/>
<path d="M1213 7035 c-67 -35 -155 -84 -194 -110 l-71 -46 7 -137 c4 -75 8
-145 8 -155 1 -9 4 -16 8 -15 4 2 54 73 110 158 84 127 201 292 252 358 5 6 8
12 6 12 -2 0 -59 -29 -126 -65z"/>
<path d="M1319 7014 c-120 -164 -269 -380 -269 -391 0 -3 -9 -16 -20 -30 -11
-15 -19 -28 -17 -29 2 -2 68 23 148 55 79 32 181 70 226 85 46 15 85 31 88 36
3 5 -8 55 -25 112 -16 57 -38 136 -48 177 l-18 74 -65 -89z"/>
<path d="M7530 7093 c1 -4 30 -46 65 -93 35 -47 115 -162 177 -257 62 -94 116
-172 119 -172 3 -1 6 5 7 12 10 116 16 240 14 269 -3 36 -7 39 -120 106 -146
85 -262 146 -262 135z"/>
<path d="M7465 7053 c-3 -21 -23 -99 -45 -172 -21 -74 -37 -138 -34 -142 2 -4
16 -10 30 -13 43 -11 294 -106 363 -138 35 -16 66 -27 68 -24 11 11 -349 526
-367 526 -4 0 -11 -17 -15 -37z"/>
<path d="M4217 7034 c-1 -1 -93 -4 -204 -8 -199 -6 -405 -16 -453 -21 -14 -1
-49 -3 -78 -4 l-53 -1 101 -147 c56 -82 149 -219 207 -305 l106 -158 45 63
c116 158 396 532 413 550 10 12 17 22 15 24 -3 3 -95 10 -99 7z"/>
<path d="M4557 7032 c-12 -2 12 -40 89 -140 57 -75 164 -219 237 -318 72 -100
133 -181 134 -180 6 5 411 601 410 603 -2 1 -104 8 -287 18 -58 4 -367 15
-511 18 -31 1 -63 1 -72 -1z"/>
<path d="M4282 6803 c-154 -208 -323 -443 -319 -444 1 0 212 -1 469 -2 l467
-2 -16 25 c-70 110 -441 610 -453 610 -5 0 -71 -84 -148 -187z"/>
<path d="M3167 6973 c-2 -1 -34 -4 -72 -8 -39 -3 -86 -8 -105 -10 -33 -4 -76
-10 -162 -20 -54 -7 -119 -16 -148 -20 -202 -30 -250 -39 -250 -47 0 -5 16
-37 35 -69 19 -33 35 -62 35 -64 0 -2 32 -59 71 -127 39 -67 87 -152 107 -188
60 -111 53 -109 102 -38 69 100 256 353 352 476 48 63 88 115 88 118 0 4 -49
2 -53 -3z"/>
<path d="M5640 6976 c0 -3 26 -38 59 -79 81 -102 250 -330 346 -464 43 -62 80
-111 82 -110 1 2 73 127 158 278 l155 274 -42 8 c-24 4 -90 14 -148 22 -58 9
-121 18 -140 21 -19 3 -55 7 -80 10 -25 2 -79 9 -120 14 -41 5 -102 12 -135
15 -33 3 -77 8 -97 11 -21 3 -38 3 -38 0z"/>
<path d="M3273 6888 c-126 -159 -399 -532 -423 -577 -11 -22 -11 -22 42 -17
29 3 89 8 133 11 44 3 103 8 130 10 28 2 102 7 165 11 63 4 135 8 160 9 25 2
91 4 147 6 99 3 101 3 91 23 -13 23 -376 567 -388 579 -4 5 -30 -20 -57 -55z"/>
<path d="M5336 6655 c-109 -161 -197 -297 -197 -302 1 -4 20 -8 43 -9 81 -3
313 -15 373 -19 33 -2 101 -6 150 -10 50 -3 113 -8 140 -11 120 -12 176 -12
172 0 -12 31 -442 611 -471 635 -10 8 -57 -55 -210 -284z"/>
<path d="M2055 6806 c-199 -43 -438 -105 -449 -116 -10 -10 174 -482 189 -486
6 -2 44 50 85 114 79 123 208 310 295 427 68 92 70 95 48 94 -10 -1 -85 -16
-168 -33z"/>
<path d="M6631 6821 c8 -11 54 -75 104 -143 49 -67 144 -205 211 -304 l123
-182 52 127 c28 69 67 167 86 216 18 50 38 98 43 107 27 49 21 53 -177 102
-193 47 -416 96 -441 96 -12 0 -12 -3 -1 -19z"/>
<path d="M821 6788 c-30 -23 -87 -72 -126 -109 l-72 -69 -16 -82 c-23 -118
-31 -195 -19 -183 5 6 27 42 47 80 36 68 170 291 221 368 13 20 23 37 22 36
-2 0 -27 -19 -57 -41z"/>
<path d="M857 6763 c-79 -121 -257 -425 -257 -438 0 -1 35 20 78 49 43 28 114
70 158 94 l80 43 -7 62 c-3 34 -5 106 -5 160 1 53 0 97 -1 97 -1 0 -22 -30
-46 -67z"/>
<path d="M7959 6720 c0 -63 -3 -136 -5 -161 l-5 -47 78 -42 c43 -24 111 -65
152 -91 41 -27 75 -49 78 -49 11 0 -179 329 -263 455 l-34 50 -1 -115z"/>
<path d="M7990 6827 c0 -2 40 -69 90 -148 49 -79 114 -188 142 -241 29 -54 56
-98 59 -98 6 0 -15 166 -26 199 -3 11 -8 33 -11 48 -3 18 -30 51 -72 91 -66
62 -182 157 -182 149z"/>
<path d="M2232 6698 c-120 -167 -185 -261 -281 -406 l-81 -123 47 6 c27 4 55
8 63 10 8 2 35 7 60 10 25 3 56 8 70 10 14 2 45 7 70 10 25 3 56 8 70 10 14 2
48 6 75 9 28 4 70 9 95 11 25 3 65 8 90 11 25 2 62 7 83 10 l38 6 -29 51 c-97
173 -262 480 -262 489 0 25 -28 -5 -108 -114z"/>
<path d="M6520 6808 c-1 -7 -66 -130 -145 -273 -79 -143 -142 -261 -141 -262
1 -2 22 -5 47 -8 24 -3 64 -7 89 -10 25 -3 65 -8 90 -11 124 -14 159 -19 230
-29 304 -46 302 -46 293 -31 -23 41 -279 412 -351 510 -84 115 -111 143 -112
114z"/>
<path d="M8182 6698 c2 -5 7 -9 12 -8 4 1 16 -9 27 -21 22 -26 25 -13 4 15
-16 21 -49 32 -43 14z"/>
<path d="M666 6683 c-6 -14 -5 -15 5 -6 7 7 10 15 7 18 -3 3 -9 -2 -12 -12z"/>
<path d="M1335 6612 c-60 -21 -165 -60 -231 -86 l-121 -48 4 -37 c14 -106 82
-401 93 -401 4 0 11 7 14 17 17 43 312 522 359 581 14 18 4 15 -118 -26z"/>
<path d="M7410 6645 c0 -2 38 -62 84 -133 46 -71 130 -206 186 -301 69 -115
106 -169 111 -160 6 11 53 209 64 269 1 8 8 46 15 83 7 37 10 70 8 73 -10 10
-208 87 -332 130 -136 47 -136 47 -136 39z"/>
<path d="M1413 6482 c-111 -173 -190 -302 -247 -404 l-37 -66 53 14 c92 24
403 93 454 100 27 3 54 9 61 13 8 4 -6 48 -43 141 -30 74 -71 182 -91 240 -20
58 -39 108 -42 112 -4 4 -52 -63 -108 -150z"/>
<path d="M7295 6508 c-27 -73 -70 -185 -96 -249 l-47 -117 112 -22 c164 -33
274 -57 394 -88 64 -16 72 -17 67 -3 -17 45 -369 611 -380 611 -1 0 -24 -60
-50 -132z"/>
<path d="M8250 6620 c6 -11 13 -20 16 -20 2 0 0 9 -6 20 -6 11 -13 20 -16 20
-2 0 0 -9 6 -20z"/>
<path d="M8276 6561 c-4 -5 -2 -20 3 -33 5 -12 11 -41 14 -63 5 -35 20 -115
25 -137 1 -5 2 -17 2 -28 0 -11 12 -30 26 -43 15 -12 56 -52 92 -89 60 -61 87
-81 66 -46 -9 13 -10 18 -13 39 0 5 -6 7 -13 3 -7 -5 -9 -2 -6 8 7 17 -19 77
-42 96 -8 8 -10 11 -3 7 8 -4 7 6 -3 32 -35 84 -65 134 -76 127 -7 -5 -8 -3
-3 5 9 16 -15 62 -28 54 -6 -3 -7 -1 -3 5 4 6 0 25 -9 42 -17 32 -21 35 -29
21z m132 -246 c-3 -3 -9 2 -12 12 -6 14 -5 15 5 6 7 -7 10 -15 7 -18z"/>
<path d="M803 6389 c-40 -21 -110 -62 -154 -90 l-82 -53 6 -189 c3 -104 8
-191 10 -193 2 -3 33 53 67 123 60 122 192 366 226 418 21 32 13 31 -73 -16z"/>
<path d="M7980 6427 c0 -3 28 -54 62 -114 33 -59 100 -186 148 -282 102 -203
98 -205 96 59 l-1 164 -56 38 c-65 42 -249 142 -249 135z"/>
<path d="M900 6383 c-86 -145 -286 -531 -278 -538 2 -2 18 3 35 11 17 9 102
40 188 69 86 29 158 55 161 58 3 3 -6 56 -20 119 -14 62 -28 127 -30 143 -3
17 -8 39 -10 50 -2 11 -7 42 -10 70 -4 27 -9 51 -10 53 -2 1 -14 -14 -26 -35z"/>
<path d="M7937 6413 c-3 -4 -8 -30 -11 -58 -6 -48 -38 -211 -56 -285 -23 -97
-31 -85 78 -120 53 -18 139 -48 190 -67 52 -19 96 -32 99 -30 6 7 -128 273
-207 412 -35 61 -69 120 -75 133 -7 13 -15 20 -18 15z"/>
<path d="M4276 6243 c-1 -2 -73 -3 -159 -4 -86 0 -157 -3 -157 -6 0 -4 78
-125 173 -269 94 -145 200 -307 234 -359 l61 -96 27 38 c14 21 54 81 88 133
33 52 126 194 205 315 80 121 147 225 149 232 4 10 -35 13 -178 14 -101 0
-242 1 -312 2 -71 1 -130 1 -131 0z"/>
<path d="M3557 6224 c-1 -1 -67 -5 -147 -8 -262 -12 -570 -34 -578 -41 -5 -4
49 -101 233 -413 l160 -272 18 22 c10 13 101 148 202 300 101 152 204 306 229
342 25 36 46 68 46 71 0 4 -158 3 -163 -1z"/>
<path d="M5140 6225 c0 -3 32 -52 72 -108 39 -56 142 -210 229 -342 87 -132
165 -251 175 -263 l16 -24 20 33 c99 162 378 642 378 650 0 5 -17 9 -37 10
-21 0 -47 2 -58 4 -11 2 -67 7 -125 10 -58 3 -130 7 -160 10 -58 4 -181 11
-387 21 -68 3 -123 3 -123 -1z"/>
<path d="M445 6146 c-111 -98 -121 -124 -149 -384 -7 -58 4 -62 24 -10 22 59
43 112 65 163 12 28 33 75 46 105 12 30 37 83 55 118 17 34 28 62 25 62 -3 0
-33 -24 -66 -54z"/>
<path d="M476 6081 c-31 -66 -56 -122 -56 -125 0 -2 -13 -33 -29 -68 -16 -35
-37 -85 -46 -113 -10 -27 -21 -54 -25 -60 -4 -5 -10 -18 -14 -29 -6 -18 -6
-18 21 0 45 29 176 104 194 109 15 5 17 27 16 205 -1 110 -2 200 -3 200 -1 0
-26 -54 -58 -119z"/>
<path d="M8385 6128 c18 -40 45 -100 60 -133 15 -33 50 -114 77 -180 l49 -120
-5 80 c-3 44 -8 89 -10 100 -2 11 -7 43 -11 70 -5 28 -9 53 -11 58 -1 4 -2 13
-3 20 -1 14 -160 177 -172 177 -4 0 7 -33 26 -72z"/>
<path d="M3819 6167 c-97 -136 -469 -702 -469 -715 0 -4 26 -7 58 -6 31 2 246
6 477 10 231 3 421 7 422 8 1 1 -82 132 -185 292 -244 375 -282 434 -285 434
-1 0 -9 -11 -18 -23z"/>
<path d="M4944 6073 c-42 -65 -101 -154 -129 -198 -111 -169 -264 -409 -262
-411 1 -1 196 -5 432 -8 237 -4 448 -7 470 -8 66 -1 66 -1 36 45 -16 23 -120
179 -231 347 -112 168 -211 315 -221 328 l-18 24 -77 -119z"/>
<path d="M8325 6000 l0 -190 100 -56 c55 -31 108 -63 117 -71 16 -14 17 -13 9
13 -25 83 -208 494 -220 494 -3 0 -6 -86 -6 -190z"/>
<path d="M2524 6149 c-56 -7 -156 -18 -219 -24 -44 -5 -131 -16 -155 -20 -8
-2 -40 -6 -71 -9 -31 -4 -65 -8 -75 -10 -29 -6 -118 -18 -131 -19 -7 0 -13 -4
-13 -8 0 -13 176 -388 261 -557 37 -73 38 -74 52 -50 115 189 297 478 357 568
42 63 79 120 83 126 7 12 -15 12 -89 3z"/>
<path d="M6250 6150 c0 -4 24 -43 53 -86 70 -105 225 -348 322 -508 l79 -129
56 114 c30 63 84 175 119 249 36 74 77 162 93 195 16 33 26 64 24 71 -2 6 -46
17 -98 24 -51 7 -100 13 -108 15 -8 1 -42 6 -75 10 -32 4 -68 9 -79 11 -11 2
-50 6 -86 10 -36 3 -72 7 -80 9 -8 2 -49 6 -90 10 -41 4 -87 8 -102 10 -16 2
-28 0 -28 -5z"/>
<path d="M2645 6021 c-168 -254 -385 -606 -385 -622 0 -6 16 -8 38 -5 34 5
146 12 324 21 226 11 370 18 420 20 32 1 61 4 64 7 3 3 -39 82 -94 175 -54 92
-138 238 -187 323 -48 85 -93 162 -99 171 -9 13 -23 -2 -81 -90z"/>
<path d="M6126 6098 c-7 -13 -82 -142 -166 -288 -84 -146 -166 -287 -182 -313
-17 -26 -28 -50 -25 -54 4 -3 32 -7 64 -8 32 -2 126 -6 208 -10 83 -4 177 -8
210 -10 183 -10 304 -17 338 -20 l38 -4 -19 32 c-168 278 -436 697 -447 697
-2 0 -11 -10 -19 -22z"/>
<path d="M1650 6029 c-19 -4 -55 -11 -79 -14 -25 -3 -47 -8 -51 -10 -3 -2 -23
-6 -45 -9 -74 -11 -348 -75 -356 -83 -8 -8 128 -430 168 -522 l19 -45 69 130
c95 179 137 254 252 447 36 60 63 109 62 111 -2 1 -20 -1 -39 -5z"/>
<path d="M7177 6033 c-3 -2 36 -73 85 -156 80 -134 196 -343 268 -479 13 -26
28 -44 31 -40 17 19 196 550 187 556 -5 4 -168 44 -208 51 -19 3 -73 15 -120
25 -47 10 -105 21 -130 25 -25 3 -59 10 -77 15 -17 4 -34 6 -36 3z"/>
<path d="M1715 5927 c-93 -158 -182 -313 -224 -392 -24 -44 -59 -108 -78 -143
-30 -54 -37 -91 -15 -78 4 2 41 7 82 11 41 4 82 8 90 10 8 1 55 6 103 10 48 3
96 8 105 10 9 1 62 6 117 10 88 7 132 11 158 14 9 1 -1 26 -90 211 -39 80 -94
199 -124 265 -77 174 -67 168 -124 72z"/>
<path d="M7081 5987 c-16 -42 -153 -340 -220 -477 -33 -68 -59 -125 -58 -126
3 -3 87 -13 162 -19 39 -3 93 -8 120 -10 28 -3 82 -7 120 -10 39 -4 79 -8 91
-10 11 -2 52 -6 90 -10 38 -4 78 -9 88 -12 15 -4 2 26 -54 133 -74 141 -263
470 -306 533 l-23 34 -10 -26z"/>
<path d="M278 5938 c-35 -71 -81 -215 -73 -228 3 -5 2 -10 -3 -10 -8 0 -36
-90 -48 -153 -4 -25 2 -22 55 35 54 57 60 68 62 108 2 58 3 66 24 188 9 57 15
105 13 108 -3 2 -16 -20 -30 -48z"/>
<path d="M8555 5951 c3 -6 8 -29 11 -53 3 -24 7 -49 9 -56 3 -7 7 -40 10 -75
11 -114 13 -121 71 -183 31 -32 53 -53 50 -46 -4 7 -16 45 -27 85 -29 105
-113 337 -122 337 -5 0 -6 -4 -2 -9z"/>
<path d="M786 5820 c-98 -33 -181 -62 -184 -64 -10 -10 77 -489 92 -503 2 -3
7 5 11 18 4 12 25 59 46 105 22 46 39 86 39 89 0 4 45 97 100 207 55 111 100
203 100 205 0 9 -40 -3 -204 -57z"/>
<path d="M7944 5733 c69 -137 175 -364 206 -441 7 -18 16 -29 20 -25 10 10 54
217 79 368 16 97 16 111 3 122 -16 13 -343 123 -367 123 -11 0 5 -41 59 -147z"/>
<path d="M943 5663 c-102 -205 -206 -433 -201 -439 2 -1 21 1 43 6 22 4 60 11
85 15 262 36 355 53 353 66 -1 8 -24 79 -51 159 -28 80 -67 199 -87 265 -20
65 -38 121 -40 123 -2 2 -48 -85 -102 -195z"/>
<path d="M7767 5703 c-27 -87 -66 -207 -87 -268 -21 -60 -40 -116 -42 -124 -3
-14 3 -16 82 -26 101 -13 372 -56 386 -62 7 -3 14 -2 14 2 0 27 -258 574 -292
618 -11 15 -19 -2 -61 -140z"/>
<path d="M449 5687 c-133 -69 -159 -87 -160 -115 -4 -138 6 -341 21 -412 0 -3
21 54 46 125 24 72 72 197 104 279 33 82 59 151 57 152 -2 2 -32 -11 -68 -29z"/>
<path d="M8356 5683 c33 -78 123 -312 159 -416 21 -59 39 -106 41 -104 6 6 14
115 19 268 l6 157 -26 20 c-25 20 -197 112 -209 112 -4 0 1 -17 10 -37z"/>
<path d="M541 5679 c-5 -14 -18 -45 -29 -69 -45 -100 -172 -445 -172 -468 0
-7 6 -12 13 -9 6 3 74 20 150 38 75 18 137 37 137 42 0 6 -13 76 -29 156 -31
151 -37 184 -47 273 -8 63 -11 68 -23 37z"/>
<path d="M8306 5679 c-3 -13 -10 -60 -16 -104 -10 -69 -50 -285 -66 -351 -5
-18 0 -23 28 -28 18 -3 43 -8 55 -10 12 -3 65 -16 119 -30 53 -15 99 -25 101
-22 8 7 -195 546 -213 565 -1 2 -5 -7 -8 -20z"/>
<path d="M192 5514 c-29 -30 -55 -68 -59 -85 -3 -16 -9 -29 -13 -29 -4 0 -13
-33 -20 -72 -7 -40 -16 -89 -21 -108 -4 -19 -11 -55 -14 -80 -4 -25 -11 -67
-16 -94 -14 -74 -12 -81 17 -47 23 27 26 41 30 133 6 115 17 151 14 43 -1 -38
-2 -74 -1 -80 1 -5 15 40 31 100 16 61 47 168 69 240 22 71 39 131 37 132 -1
1 -25 -23 -54 -53z m-79 -255 c-6 -6 -7 3 -4 23 4 28 6 29 9 9 2 -13 0 -27 -5
-32z"/>
<path d="M8646 5468 c19 -56 53 -170 75 -253 39 -149 40 -150 35 -77 -2 40 -1
70 3 67 5 -2 9 -44 10 -92 1 -48 7 -93 13 -101 17 -20 27 4 18 42 -5 17 -11
49 -13 71 -3 22 -9 63 -13 90 -7 43 -9 46 -15 25 -5 -19 -7 -14 -9 25 -5 153
-24 201 -107 278 l-31 29 34 -104z"/>
<path d="M225 5447 c-15 -50 -29 -96 -31 -102 -1 -5 -18 -68 -38 -140 -49
-176 -50 -170 27 -136 34 16 70 31 80 35 16 5 18 13 13 51 -4 25 -9 120 -12
212 -2 92 -6 168 -8 170 -1 2 -15 -39 -31 -90z"/>
<path d="M8603 5448 c0 -98 -12 -319 -18 -329 -2 -3 34 -21 81 -41 l84 -36 -6
26 c-28 129 -129 472 -138 472 -2 0 -3 -42 -3 -92z"/>
<path d="M3462 5320 l-124 -5 102 -170 c166 -275 352 -579 364 -592 8 -9 29
16 80 100 38 62 138 220 221 352 84 132 164 259 179 283 l27 43 -363 -3 c-200
-2 -419 -5 -486 -8z"/>
<path d="M4565 5304 c37 -56 343 -541 411 -651 52 -85 72 -109 80 -100 12 13
40 58 267 432 186 306 198 327 194 331 -2 2 -221 6 -487 10 l-484 6 19 -28z"/>
<path d="M2947 5304 c-1 -1 -90 -5 -197 -9 -284 -10 -490 -22 -498 -30 -2 -2
26 -61 63 -132 73 -138 83 -157 197 -363 118 -212 124 -222 134 -222 5 -1 24
26 43 58 63 111 235 399 306 514 39 63 81 132 94 152 l22 37 -81 -2 c-45 -1
-82 -2 -83 -3z"/>
<path d="M5756 5298 c4 -7 30 -49 58 -93 65 -104 368 -612 387 -648 l15 -27
39 72 c22 39 51 92 65 117 14 25 39 71 56 101 100 177 237 441 231 446 -6 6
-51 9 -257 19 -74 3 -173 8 -220 10 -298 15 -381 15 -374 3z"/>
<path d="M4374 5197 c-29 -45 -139 -221 -246 -392 l-195 -310 248 -3 c137 -1
361 -1 498 0 l248 3 -204 325 c-112 179 -223 355 -246 392 -23 37 -44 68 -47
68 -3 0 -28 -37 -56 -83z"/>
<path d="M1987 5254 c-1 -1 -49 -5 -107 -8 -58 -4 -121 -9 -140 -11 -19 -2
-69 -6 -110 -9 -71 -6 -175 -15 -230 -21 -13 -1 -25 -6 -27 -12 -3 -9 112
-288 180 -433 19 -41 51 -111 71 -155 28 -60 40 -76 47 -65 5 8 41 78 80 155
81 158 109 210 220 412 44 78 79 144 79 147 0 5 -57 5 -63 0z"/>
<path d="M3165 5178 c-27 -45 -98 -161 -157 -258 -59 -96 -113 -186 -121 -200
-7 -14 -39 -69 -71 -123 -33 -54 -56 -101 -52 -104 7 -7 916 -7 922 0 2 2 -27
53 -64 113 -37 60 -141 232 -231 382 -90 149 -166 272 -170 272 -3 0 -28 -37
-56 -82z"/>
<path d="M5403 4878 c-127 -211 -230 -384 -229 -386 3 -2 841 -5 899 -3 15 1
27 5 27 10 0 4 -89 156 -198 337 -245 406 -256 423 -263 424 -3 0 -110 -172
-236 -382z"/>
<path d="M6810 5253 c0 -5 6 -17 14 -28 7 -11 27 -45 43 -75 17 -30 53 -96 81
-147 28 -50 95 -176 148 -280 53 -103 98 -190 100 -192 7 -7 153 312 257 561
l45 107 -26 5 c-15 3 -63 8 -107 11 -103 8 -146 11 -220 19 -33 3 -96 8 -140
11 -44 3 -106 8 -137 11 -32 2 -58 1 -58 -3z"/>
<path d="M2070 5087 c-40 -72 -82 -147 -92 -165 -52 -94 -228 -429 -228 -435
0 -4 780 -2 787 2 1 1 -19 38 -44 84 -25 45 -64 116 -86 157 -22 41 -57 104
-77 140 -20 36 -65 121 -99 190 -35 69 -69 133 -76 142 -10 16 -22 0 -85 -115z"/>
<path d="M6655 5108 c-87 -171 -238 -452 -295 -548 -16 -28 -30 -56 -30 -63 0
-9 90 -12 383 -11 210 0 386 1 390 2 6 2 -128 271 -194 389 -10 18 -35 63 -56
100 -41 75 -133 236 -138 241 -1 2 -28 -48 -60 -110z"/>
<path d="M1209 5186 c-2 -2 -36 -7 -75 -10 -39 -4 -80 -8 -90 -10 -11 -2 -60
-9 -109 -15 -50 -7 -100 -14 -110 -16 -11 -2 -31 -4 -45 -4 -49 -2 -52 -11
-30 -87 79 -269 170 -529 180 -517 4 4 23 49 43 98 45 115 130 310 196 449 45
93 57 128 40 112z"/>
<path d="M7660 5147 c10 -23 41 -91 70 -152 28 -60 81 -180 116 -265 36 -85
71 -168 79 -185 l14 -30 10 27 c34 91 124 361 151 456 29 104 31 126 12 127
-4 1 -29 4 -57 9 -27 4 -63 9 -80 11 -46 7 -184 24 -240 30 -27 4 -60 8 -72
10 l-22 3 19 -41z"/>
<path d="M1236 5047 c-27 -56 -75 -163 -108 -237 -33 -74 -63 -144 -68 -155
-33 -73 -58 -134 -63 -156 l-6 -25 102 2 c56 2 189 3 294 3 l193 1 -9 23 c-5
12 -29 65 -54 118 -51 107 -139 314 -187 434 -17 44 -35 83 -39 87 -4 4 -29
-38 -55 -95z"/>
<path d="M7565 5135 c-71 -181 -258 -608 -278 -633 -5 -7 -8 -14 -6 -17 4 -3
546 -9 586 -6 13 1 -117 309 -224 531 -56 116 -72 141 -78 125z"/>
<path d="M545 5089 c-195 -43 -224 -51 -220 -62 2 -7 6 -32 9 -57 16 -127 83
-440 97 -454 2 -3 24 58 47 136 23 77 67 208 97 291 30 82 55 151 55 153 0 6
-42 3 -85 -7z"/>
<path d="M8254 5039 c14 -35 57 -163 97 -284 39 -121 74 -227 77 -235 3 -8 11
10 19 40 7 30 16 64 19 75 4 18 11 52 29 135 11 56 15 77 20 110 3 19 10 61
16 94 6 32 9 60 6 62 -8 9 -184 49 -265 61 l-42 6 24 -64z"/>
<path d="M625 4942 c-46 -125 -135 -390 -149 -445 l-7 -28 199 2 199 2 -54
160 c-58 172 -123 390 -123 412 0 8 -4 16 -9 19 -5 3 -30 -51 -56 -122z"/>
<path d="M8155 4968 c-16 -57 -57 -188 -91 -292 -35 -104 -61 -192 -59 -196 2
-4 86 -8 186 -9 100 -1 186 -4 190 -7 5 -3 9 3 9 13 0 36 -180 563 -200 586
-3 4 -19 -39 -35 -95z"/>
<path d="M208 5005 c-20 -8 -53 -21 -72 -30 -32 -16 -35 -20 -31 -53 2 -21 7
-80 10 -132 2 -52 9 -133 15 -180 5 -47 10 -91 10 -99 0 -33 10 3 40 144 26
124 55 240 86 348 6 20 -7 21 -58 2z"/>
<path d="M8600 5011 c0 -6 9 -44 20 -85 12 -42 23 -83 25 -93 2 -10 17 -79 34
-154 17 -75 31 -146 31 -158 0 -28 15 -27 16 2 0 12 4 47 7 77 13 105 21 215
21 290 l1 75 -55 21 c-82 32 -100 37 -100 25z"/>
<path d="M271 4923 c-37 -127 -82 -318 -97 -413 -3 -19 -8 -39 -11 -43 -3 -6
137 -5 224 2 9 1 9 13 -2 49 -8 26 -16 58 -19 72 -2 14 -11 59 -20 100 -21
107 -35 187 -42 245 -4 28 -8 52 -9 53 -2 2 -13 -27 -24 -65z"/>
<path d="M8569 4982 c-1 -7 -2 -15 -3 -19 -1 -5 -6 -33 -10 -63 -10 -65 -10
-64 -36 -200 -12 -58 -28 -131 -36 -164 -8 -32 -13 -61 -10 -64 4 -3 56 -7
117 -9 102 -3 110 -2 105 14 -3 10 -8 38 -11 63 -3 25 -11 63 -17 85 -5 22
-12 49 -15 60 -9 42 -13 61 -17 80 -7 37 -58 220 -62 224 -2 2 -5 -1 -5 -7z"/>
<path d="M51 4923 c-18 -15 -22 -33 -28 -118 -11 -176 -10 -270 5 -267 8 1 11
-2 7 -8 -3 -6 -10 -8 -15 -5 -4 3 -10 -9 -12 -26 -3 -16 0 -33 5 -36 6 -3 7
-1 3 5 -4 7 -2 12 3 12 6 0 11 -6 11 -14 0 -8 8 -13 18 -11 9 2 32 4 50 4 30
1 32 3 27 29 -11 68 -29 277 -29 363 -1 43 -4 55 -15 51 -10 -4 -12 1 -6 16 8
27 4 27 -24 5z m15 -140 c-9 -48 -16 -101 -17 -118 -1 -20 -3 -24 -6 -11 -6
22 28 247 34 229 2 -6 -3 -51 -11 -100z m-29 -175 c-3 -8 -6 -5 -6 6 -1 11 2
17 5 13 3 -3 4 -12 1 -19z"/>
<path d="M8789 4934 c-1 -5 -1 -20 0 -34 1 -23 0 -23 -8 -5 -7 14 -10 -3 -11
-60 -2 -80 -3 -101 -14 -205 -3 -30 -9 -80 -12 -111 l-6 -57 47 -4 c26 -2 49
0 52 5 3 4 2 31 -1 58 -5 37 -3 48 5 43 7 -4 9 -3 5 4 -3 6 -8 55 -10 109 -6
154 -17 242 -32 254 -8 6 -14 8 -15 3z m16 -119 c10 -76 1 -79 -11 -5 -6 33
-7 60 -3 60 4 0 11 -25 14 -55z m23 -175 c0 -16 -3 -11 -9 15 -4 22 -8 51 -7
65 0 16 3 11 9 -15 4 -22 8 -51 7 -65z"/>
<path d="M6 4368 c3 -4 11 -5 17 -1 9 5 9 3 1 -8 -6 -8 -14 -23 -17 -34 -7
-19 -6 -19 7 -2 12 16 14 15 14 -8 0 -14 -5 -28 -11 -32 -6 -4 -7 -1 -2 7 5 9
4 11 -4 6 -6 -4 -9 -12 -6 -17 3 -5 8 -54 10 -108 7 -176 15 -234 38 -259 20
-21 22 -22 28 -5 3 10 3 20 -1 23 -4 3 -10 25 -13 50 -4 30 -3 38 3 25 5 -11
9 -30 9 -42 1 -13 4 -23 9 -23 4 0 7 30 8 68 0 67 10 201 19 257 2 17 7 49 9
73 l6 43 -65 -2 c-35 -1 -62 -6 -59 -11z m31 -150 c-3 -8 -6 -5 -6 6 -1 11 2
17 5 13 3 -3 4 -12 1 -19z m10 -70 c-3 -7 -5 -2 -5 12 0 14 2 19 5 13 2 -7 2
-19 0 -25z m16 -86 c4 -21 3 -31 -3 -27 -6 3 -10 20 -10 37 0 38 5 34 13 -10z"/>
<path d="M170 4359 c0 -29 49 -258 81 -380 30 -113 48 -147 50 -96 2 47 56
336 82 435 13 47 12 52 -2 53 -178 6 -211 4 -211 -12z"/>
<path d="M8493 4372 c-26 -4 -27 -5 -13 -52 9 -30 32 -135 46 -205 8 -44 44
-258 45 -268 0 -10 29 80 44 138 2 11 11 47 20 80 28 110 64 299 59 304 -6 6
-164 8 -201 3z"/>
<path d="M8744 4316 c4 -34 9 -81 12 -106 8 -74 13 -151 14 -220 0 -44 3 -60
9 -50 6 8 7 18 5 22 -3 4 0 8 6 8 7 0 9 -9 5 -22 -17 -58 -17 -58 -1 -52 20 8
24 22 31 119 4 44 8 90 10 103 2 12 -1 22 -6 22 -5 0 -9 -12 -10 -27 0 -16 -3
-22 -6 -15 -8 20 6 64 19 56 7 -5 9 13 6 59 -4 44 -2 68 6 71 7 3 7 5 -1 5 -8
1 -10 15 -6 47 l5 45 -52 -2 -52 -3 6 -60z m83 -133 c-3 -10 -5 -2 -5 17 0 19
2 27 5 18 2 -10 2 -26 0 -35z m-20 -150 c-3 -10 -5 -2 -5 17 0 19 2 27 5 18 2
-10 2 -26 0 -35z m-10 -45 c-3 -8 -6 -5 -6 6 -1 11 2 17 5 13 3 -3 4 -12 1
-19z"/>
<path d="M473 4353 c58 -196 144 -448 185 -543 15 -37 20 -41 25 -25 55 191
106 354 141 456 l44 126 -200 1 c-187 2 -200 1 -195 -15z"/>
<path d="M990 4359 c0 -22 200 -478 278 -634 18 -35 21 -38 28 -20 13 34 135
328 149 360 91 196 133 291 130 293 -6 7 -585 7 -585 1z"/>
<path d="M7324 4360 l-40 -5 76 -168 c68 -149 168 -385 201 -472 11 -30 11
-30 63 75 98 200 246 539 246 564 0 12 -459 17 -546 6z"/>
<path d="M8005 4360 c-2 -4 24 -92 59 -196 35 -104 76 -235 92 -292 15 -56 31
-99 34 -95 19 22 176 475 195 561 l7 32 -192 -2 c-105 -1 -193 -5 -195 -8z"/>
<path d="M1765 4328 c16 -39 37 -80 218 -418 22 -41 43 -79 47 -85 4 -5 25
-41 46 -80 21 -38 45 -82 53 -97 l15 -26 91 171 c148 280 196 368 235 437 21
36 45 80 54 98 l17 32 -395 0 -395 0 14 -32z"/>
<path d="M2778 4310 c36 -64 347 -582 399 -664 24 -37 46 -67 48 -65 2 2 76
126 165 274 89 149 193 320 231 381 38 61 69 112 69 115 0 2 -211 4 -469 4
l-468 1 25 -46z"/>
<path d="M3935 4352 c-2 -3 277 -453 430 -690 l66 -103 56 88 c262 415 431
690 430 698 -2 9 -973 16 -982 7z"/>
<path d="M5179 4350 c-4 -3 10 -35 33 -70 22 -36 126 -207 231 -380 104 -173
191 -317 192 -319 6 -6 332 522 413 669 13 25 33 59 43 75 l18 30 -461 0
c-253 0 -464 -2 -469 -5z"/>
<path d="M6326 4353 c-3 -3 3 -18 13 -32 10 -14 42 -71 71 -126 29 -55 56
-104 60 -110 9 -12 66 -120 167 -314 42 -80 77 -147 78 -148 2 -3 156 271 212
377 125 235 183 348 183 353 0 8 -776 8 -784 0z"/>
<path d="M135 4268 c-4 -40 -9 -82 -11 -93 -4 -22 -13 -135 -18 -234 l-3 -63
52 -24 c28 -13 65 -26 81 -30 l31 -6 -43 170 c-24 94 -48 197 -53 229 -14 81
-22 117 -26 121 -1 2 -6 -30 -10 -70z"/>
<path d="M8709 4319 c-1 -29 -5 -54 -24 -144 -9 -38 -18 -80 -20 -92 -10 -48
-14 -64 -39 -158 -14 -53 -26 -99 -26 -102 0 -7 40 4 107 28 l55 21 -6 112
c-7 120 -10 147 -21 246 -5 36 -9 73 -10 82 -2 28 -15 34 -16 7z"/>
<path d="M420 4290 c-17 -64 -68 -297 -75 -350 -4 -25 -10 -65 -15 -90 -5 -25
-7 -47 -5 -49 6 -5 105 -28 213 -50 85 -16 93 -17 89 -2 -3 9 -35 99 -70 201
-53 153 -81 237 -121 375 -2 6 -9 -10 -16 -35z"/>
<path d="M8396 4215 c-47 -150 -100 -308 -137 -404 -16 -41 -28 -76 -26 -77 3
-3 275 53 294 60 11 5 13 17 8 53 -8 61 -71 373 -89 438 l-13 50 -37 -120z"/>
<path d="M915 4302 c-21 -53 -120 -351 -151 -454 -26 -90 -33 -123 -24 -128
11 -7 105 -22 225 -36 22 -2 54 -6 70 -9 17 -2 59 -7 95 -11 36 -3 70 -7 75
-8 15 -2 11 9 -43 124 -84 178 -222 501 -222 519 0 18 -18 21 -25 3z"/>
<path d="M7890 4212 c-58 -143 -221 -508 -247 -554 -2 -4 5 -5 16 -3 11 2 48
6 83 10 35 3 74 7 88 10 14 2 48 7 75 10 71 9 112 15 174 25 30 6 55 10 56 10
9 0 -181 579 -194 592 -4 5 -27 -40 -51 -100z"/>
<path d="M1636 4263 c-70 -140 -266 -592 -266 -616 0 -7 10 -13 23 -13 20 0
148 -10 242 -19 114 -11 159 -15 250 -20 55 -3 115 -8 133 -10 17 -3 32 -2 32
2 0 5 -78 148 -195 358 -12 22 -59 113 -104 203 -45 89 -84 162 -86 162 -3 0
-15 -21 -29 -47z"/>
<path d="M2601 4233 c-76 -134 -196 -354 -251 -458 -29 -55 -64 -121 -78 -147
-15 -26 -24 -49 -22 -51 5 -5 147 -15 310 -22 52 -2 163 -7 245 -10 208 -9
305 -12 305 -9 0 2 -28 47 -62 101 -50 80 -228 376 -376 626 l-28 48 -43 -78z"/>
<path d="M6201 4289 c-7 -18 -265 -451 -432 -725 l-19 -31 97 3 c54 2 154 6
223 9 69 3 188 8 265 11 77 3 154 8 170 9 17 2 49 4 73 4 l42 1 -38 73 c-22
39 -63 117 -92 172 -68 128 -249 454 -266 479 -13 19 -14 18 -23 -5z"/>
<path d="M7140 4202 c-109 -212 -228 -435 -291 -544 -22 -36 -39 -69 -39 -72
0 -4 12 -4 28 -2 15 3 77 7 137 11 61 4 124 8 140 10 17 2 66 6 110 10 147 10
266 22 271 27 5 6 -144 350 -232 537 -30 62 -54 117 -54 122 0 27 -21 -3 -70
-99z"/>
<path d="M3691 4112 c-227 -372 -341 -562 -344 -574 -2 -13 16 -14 596 -22
l368 -4 -14 21 c-29 46 -307 488 -392 625 -49 78 -91 142 -94 142 -3 -1 -57
-85 -120 -188z"/>
<path d="M5011 4248 c-18 -29 -126 -202 -240 -384 -115 -183 -211 -337 -215
-342 -6 -10 124 -10 877 2 64 1 86 4 83 13 -3 7 -74 126 -159 265 -85 139
-187 308 -228 375 -41 68 -76 123 -80 123 -3 0 -20 -24 -38 -52z"/>
<path d="M44 3828 c3 -18 10 -62 16 -98 20 -127 43 -230 52 -230 5 0 6 -4 3
-10 -10 -16 22 -107 50 -144 14 -19 38 -42 52 -51 31 -20 32 -29 -21 138 -19
59 -30 107 -25 107 4 0 13 -19 20 -42 6 -24 24 -81 39 -128 l28 -85 2 125 c2
122 3 144 14 262 l5 57 -37 12 c-20 6 -54 20 -75 31 -22 11 -41 17 -44 14 -6
-6 35 -193 49 -218 5 -12 5 -18 -2 -18 -5 0 -10 3 -11 8 0 4 -13 57 -28 117
l-29 110 5 -115 c3 -63 3 -113 0 -110 -3 3 -8 61 -12 130 -6 115 -9 127 -32
148 l-24 24 5 -34z"/>
<path d="M8782 3813 c-5 -10 -10 -52 -10 -93 -1 -84 11 -65 23 37 3 31 9 61
11 65 3 4 1 8 -5 8 -6 0 -14 -8 -19 -17z"/>
<path d="M8737 3792 c-3 -4 -38 -21 -77 -37 l-71 -29 7 -110 c4 -61 8 -159 8
-218 0 -60 1 -108 3 -108 6 0 85 260 113 373 28 114 33 157 17 129z"/>
<path d="M8741 3706 c-6 -29 -14 -64 -16 -78 -3 -13 -27 -98 -54 -189 -27 -90
-49 -165 -47 -166 1 -1 23 19 48 45 42 42 48 55 62 124 9 42 16 96 16 118 0
23 4 39 9 36 8 -5 8 11 1 34 -1 3 -1 33 0 68 1 34 0 62 -3 62 -2 0 -9 -24 -16
-54z"/>
<path d="M339 3683 c42 -141 202 -544 213 -537 4 3 8 20 8 37 0 18 4 50 9 72
5 22 12 58 14 80 3 22 13 76 22 120 41 194 40 185 19 185 -17 0 -229 51 -276
66 -14 4 -16 1 -9 -23z"/>
<path d="M8460 3691 c-30 -10 -97 -26 -147 -36 -84 -17 -92 -21 -88 -39 14
-63 27 -124 31 -146 2 -14 9 -47 14 -75 9 -48 17 -91 25 -145 2 -14 7 -45 10
-69 l7 -45 14 27 c35 65 204 515 204 541 0 8 -6 7 -70 -13z"/>
<path d="M303 3668 c-1 -7 -4 -56 -8 -108 -4 -52 -8 -144 -9 -205 l-2 -110 33
-23 c45 -31 193 -105 199 -100 2 3 -8 31 -22 64 -35 80 -127 323 -154 409 -23
70 -36 97 -37 73z"/>
<path d="M8516 3569 c-41 -122 -139 -376 -162 -421 -9 -17 -10 -28 -4 -28 13
0 141 64 193 97 l39 25 -6 186 c-4 103 -10 202 -14 221 -7 32 -10 27 -46 -80z"/>
<path d="M745 3598 c4 -12 23 -56 41 -96 19 -41 34 -76 34 -79 0 -10 212 -433
220 -438 4 -2 15 23 24 58 15 54 142 441 162 490 5 13 3 18 -7 16 -11 -2 -125
10 -149 16 -3 1 -30 5 -60 9 -89 12 -233 36 -253 42 -16 5 -18 2 -12 -18z"/>
<path d="M8105 3614 c-13 -4 -325 -51 -390 -59 -77 -10 -86 -14 -76 -33 13
-24 145 -426 162 -489 7 -29 16 -53 19 -53 7 0 214 420 265 539 35 83 39 101
20 95z"/>
<path d="M690 3590 c0 -3 -13 -64 -29 -135 -16 -72 -32 -148 -35 -170 -3 -22
-10 -64 -16 -94 -20 -103 -19 -106 58 -135 99 -37 300 -98 310 -94 5 1 -35 92
-89 201 -53 109 -120 251 -148 315 -28 64 -51 115 -51 112z"/>
<path d="M8155 3559 c-4 -13 -18 -46 -30 -74 -13 -27 -46 -102 -75 -165 -28
-63 -80 -170 -115 -237 -34 -68 -57 -123 -51 -123 20 0 180 48 285 86 l101 36
-6 37 c-27 182 -80 441 -93 454 -5 5 -12 -1 -16 -14z"/>
<path d="M1431 3412 c90 -170 279 -500 324 -564 10 -15 18 -2 60 90 67 148
124 269 183 392 28 58 52 111 54 119 4 16 -5 18 -136 26 -55 3 -112 8 -126 10
-14 2 -59 6 -100 10 -41 4 -91 8 -110 10 -19 2 -66 7 -105 11 -38 3 -78 8 -88
10 -14 2 -4 -23 44 -114z"/>
<path d="M7458 3525 c-1 -1 -37 -6 -78 -10 -41 -3 -86 -8 -100 -10 -45 -7
-189 -20 -330 -30 -137 -10 -145 -11 -143 -21 1 -5 33 -74 71 -154 38 -80 102
-217 142 -305 40 -88 73 -161 75 -163 3 -4 200 328 267 453 128 235 127 233
113 238 -7 3 -15 4 -17 2z"/>
<path d="M1296 3479 c-3 -8 -25 -68 -49 -134 -36 -99 -105 -308 -131 -401 -6
-20 0 -23 66 -38 120 -28 301 -66 338 -72 19 -3 65 -11 103 -18 37 -7 67 -12
67 -10 0 1 -31 53 -68 116 -38 62 -82 138 -99 168 -16 30 -39 71 -50 90 -11
19 -41 76 -68 125 -108 203 -103 193 -109 174z"/>
<path d="M7515 3412 c-21 -42 -63 -119 -92 -171 -29 -51 -53 -95 -53 -97 0 -1
-43 -76 -96 -166 -53 -90 -98 -166 -101 -170 -4 -8 2 -7 182 28 191 36 395 85
395 95 0 26 -173 536 -187 550 -5 5 -26 -27 -48 -69z"/>
<path d="M2278 3403 c121 -205 426 -683 436 -683 3 0 23 30 44 68 22 37 107
185 191 329 83 144 154 268 157 276 4 12 -10 15 -78 17 -89 1 -181 5 -348 15
-58 3 -143 8 -190 10 -47 2 -120 7 -162 10 l-78 6 28 -48z"/>
<path d="M6527 3444 c-1 -1 -69 -5 -152 -9 -82 -4 -166 -8 -185 -10 -27 -3
-348 -16 -428 -18 -17 0 -12 -12 52 -121 29 -50 62 -107 73 -126 67 -118 247
-426 254 -434 4 -5 55 64 115 155 58 90 121 187 139 214 26 39 108 174 211
346 3 6 -73 9 -79 3z"/>
<path d="M2063 3223 c-145 -298 -205 -435 -196 -443 4 -5 33 -11 63 -15 30 -3
80 -10 110 -15 30 -5 74 -11 97 -14 122 -15 296 -35 358 -41 39 -4 82 -8 97
-10 l27 -3 -22 34 c-182 279 -248 383 -327 514 -51 85 -98 161 -105 168 -9 10
-31 -29 -102 -175z"/>
<path d="M6650 3324 c-78 -129 -285 -457 -342 -542 -65 -97 -68 -104 -32 -98
16 3 58 7 94 11 36 3 81 8 100 10 19 2 60 7 90 10 30 4 66 8 80 10 14 2 48 7
76 10 28 3 59 7 70 9 19 4 90 13 151 21 79 9 78 1 5 158 -37 78 -105 220 -152
316 l-86 175 -54 -90z"/>
<path d="M3350 3389 c0 -10 391 -606 457 -696 l31 -43 90 138 c118 180 322
496 356 550 l26 42 -82 1 c-227 2 -618 9 -740 13 -91 4 -138 2 -138 -5z"/>
<path d="M5287 3393 c-1 -1 -166 -4 -367 -8 -201 -4 -366 -7 -366 -8 -2 -2
104 -166 344 -537 124 -190 124 -190 141 -168 25 33 411 613 448 675 l32 52
-115 -2 c-64 -1 -116 -3 -117 -4z"/>
<path d="M3126 3183 c-55 -93 -143 -243 -198 -334 -54 -92 -98 -172 -98 -178
0 -6 20 -11 48 -12 26 0 56 -2 67 -4 11 -2 67 -7 125 -10 58 -3 128 -7 155
-10 51 -4 250 -14 408 -20 48 -1 87 -1 87 2 0 3 -15 26 -34 52 -39 53 -378
563 -422 633 -16 27 -31 48 -34 48 -3 0 -50 -75 -104 -167z"/>
<path d="M5596 3302 c-45 -72 -384 -581 -423 -634 -18 -25 -30 -49 -26 -51 10
-6 347 6 498 18 28 2 93 7 145 11 52 3 107 7 123 8 15 2 47 3 72 4 25 1 45 6
45 12 0 5 -46 89 -102 185 -57 96 -107 183 -113 192 -61 108 -180 303 -185
303 -3 0 -18 -21 -34 -48z"/>
<path d="M4378 3257 c-105 -163 -246 -380 -329 -506 -49 -73 -89 -137 -89
-141 0 -5 212 -9 470 -9 259 0 470 4 470 9 0 4 -53 88 -118 187 -65 98 -169
258 -232 355 -63 98 -117 178 -120 178 -3 0 -26 -33 -52 -73z"/>
<path d="M154 3290 c4 -14 9 -40 13 -57 3 -18 9 -33 13 -33 4 0 7 -6 7 -12 1
-29 13 -72 22 -81 5 -5 7 -16 4 -25 -4 -9 -2 -13 4 -9 7 5 9 0 6 -13 -3 -11 0
-20 6 -20 5 0 8 -7 5 -15 -4 -8 -1 -15 5 -15 6 0 10 -3 9 -7 -6 -21 14 -83 24
-77 7 4 8 3 4 -4 -6 -9 18 -72 27 -72 2 0 3 9 4 20 1 11 -2 18 -7 15 -6 -3 -7
0 -4 8 3 8 1 41 -5 73 -11 61 -21 136 -25 190 -1 23 -18 50 -60 95 -44 48 -57
58 -52 39z"/>
<path d="M8648 3242 c-44 -46 -47 -52 -53 -118 -6 -73 -13 -122 -21 -164 -2
-14 -6 -35 -9 -48 -2 -13 -7 -33 -10 -45 -5 -19 -5 -20 5 -4 19 29 146 429
136 427 0 0 -22 -22 -48 -48z"/>
<path d="M310 3148 c0 -10 61 -166 95 -243 19 -43 83 -183 105 -230 l19 -40 2
150 c1 83 3 171 5 198 l3 47 -62 31 c-34 18 -86 47 -114 65 -29 19 -53 28 -53
22z"/>
<path d="M8518 3135 c-20 -14 -72 -43 -114 -66 l-78 -41 4 -86 c2 -48 3 -136
3 -197 l-1 -110 25 50 c58 113 207 464 200 471 -2 2 -19 -8 -39 -21z"/>
<path d="M295 3075 c3 -44 7 -91 9 -105 3 -14 7 -43 11 -65 14 -102 16 -106
97 -186 43 -43 83 -79 88 -79 5 0 -11 43 -35 95 -24 52 -61 134 -81 182 -20
49 -43 104 -52 123 -8 19 -21 53 -29 75 -13 38 -13 37 -8 -40z"/>
<path d="M8563 3123 c-14 -40 -66 -171 -84 -213 -27 -60 -31 -69 -83 -183 -47
-101 -45 -104 25 -41 98 89 108 105 124 195 8 46 18 109 21 139 3 30 7 70 9
88 4 35 -2 42 -12 15z"/>
<path d="M8220 2985 c-34 -17 -176 -68 -281 -100 l-86 -26 12 -57 c50 -224 51
-232 60 -297 3 -22 7 -48 9 -57 1 -10 5 -20 8 -23 3 -4 37 49 76 117 75 132
235 448 230 453 -2 2 -14 -3 -28 -10z"/>
<path d="M620 2984 c0 -28 291 -567 300 -556 4 4 12 42 19 84 18 113 20 123
47 236 13 57 24 105 24 107 0 2 -39 16 -87 30 -49 15 -135 45 -192 66 -113 42
-111 42 -111 33z"/>
<path d="M579 2950 c-1 -19 -3 -46 -4 -60 -4 -28 -7 -203 -6 -266 1 -41 2 -42
84 -92 105 -64 217 -125 222 -120 2 2 -21 49 -52 103 -30 55 -98 183 -149 285
-82 161 -94 181 -95 150z"/>
<path d="M8222 2862 c-56 -117 -135 -267 -200 -379 -22 -40 -39 -73 -36 -73
14 0 187 94 245 133 l64 43 -1 115 c-2 170 -6 259 -14 264 -3 2 -30 -44 -58
-103z"/>
<path d="M7717 2824 c-3 -3 -23 -10 -44 -15 -84 -20 -350 -80 -373 -84 -87
-16 -134 -26 -138 -29 -2 -3 23 -74 56 -158 34 -84 76 -196 95 -248 l34 -95
95 145 c94 143 125 193 236 381 46 77 66 130 39 103z"/>
<path d="M1162 2763 c94 -169 347 -568 354 -560 2 2 21 52 43 113 21 60 63
170 93 245 l55 136 -161 33 c-89 18 -212 46 -275 62 -63 15 -121 28 -128 28
-9 0 -2 -19 19 -57z"/>
<path d="M346 2720 c92 -221 210 -448 342 -657 75 -119 227 -336 247 -353 14
-12 13 15 -5 90 -16 65 -18 81 -19 111 -1 19 -14 36 -44 60 -24 19 -74 61
-112 94 -37 33 -72 59 -77 57 -5 -1 -7 2 -4 7 4 5 -7 19 -24 31 -16 12 -30 26
-30 32 0 5 -9 23 -21 39 -11 16 -18 33 -15 38 4 5 -3 47 -13 93 -11 45 -23
108 -27 138 -6 54 -9 58 -105 151 -55 53 -99 101 -99 106 0 5 -7 18 -15 29 -8
10 1 -19 21 -66z"/>
<path d="M1066 2783 c-38 -137 -90 -413 -79 -423 21 -21 450 -177 459 -167 3
2 -22 44 -54 93 -82 125 -178 280 -252 407 -34 59 -64 107 -65 107 -2 0 -6 -8
-9 -17z"/>
<path d="M7740 2723 c-57 -102 -207 -344 -275 -446 -30 -45 -53 -83 -50 -85
13 -14 453 152 462 174 9 24 -68 405 -87 427 -3 4 -26 -28 -50 -70z"/>
<path d="M8460 2687 c-19 -23 -58 -62 -86 -87 -28 -25 -51 -52 -52 -60 -1 -40
-14 -123 -31 -192 -10 -43 -14 -78 -10 -78 8 0 13 15 10 33 -1 4 6 10 14 13 8
3 12 10 9 15 -3 5 0 9 6 9 6 0 8 5 5 10 -3 6 -1 10 5 10 6 0 8 5 5 10 -3 6 -1
10 5 10 6 0 9 4 6 9 -4 5 -2 11 4 13 6 2 12 12 14 23 4 17 86 191 131 278 20
39 5 32 -35 -16z"/>
<path d="M1876 2658 c27 -47 292 -434 364 -530 l86 -117 46 87 c26 48 94 173
151 277 58 105 104 191 103 192 -3 3 -57 11 -121 18 -60 6 -92 9 -175 20 -25
3 -61 8 -80 10 -50 6 -298 42 -353 51 -21 3 -27 1 -21 -8z"/>
<path d="M6959 2666 c-2 -2 -28 -7 -58 -11 -30 -4 -62 -8 -71 -10 -9 -2 -41
-6 -70 -10 -29 -4 -60 -8 -69 -10 -9 -1 -41 -6 -71 -10 -30 -3 -66 -8 -80 -10
-25 -3 -87 -11 -170 -20 -110 -12 -134 -15 -136 -18 -1 -1 19 -38 43 -82 25
-44 92 -167 150 -272 58 -106 108 -193 111 -193 13 1 357 489 431 613 17 28
19 37 8 37 -7 0 -16 -2 -18 -4z"/>
<path d="M7060 2643 c0 -15 -221 -344 -342 -510 -59 -81 -91 -133 -82 -133 52
0 607 128 632 146 5 3 -165 430 -189 474 -10 19 -18 30 -19 23z"/>
<path d="M1786 2632 c-6 -11 -146 -351 -150 -367 -2 -5 -6 -17 -9 -25 -4 -8
-13 -33 -21 -56 l-14 -40 107 -28 c136 -36 108 -29 320 -76 102 -22 193 -40
203 -40 13 0 -13 42 -96 158 -62 86 -159 227 -215 312 -115 174 -116 175 -125
162z"/>
<path d="M2840 2544 c0 -16 441 -617 472 -641 13 -11 42 28 210 280 107 160
197 296 199 301 5 12 2 12 -199 20 -95 4 -189 9 -210 11 -20 2 -84 7 -142 10
-58 4 -123 8 -145 10 -159 14 -185 15 -185 9z"/>
<path d="M5927 2543 c-2 -1 -45 -5 -97 -8 -52 -4 -111 -8 -130 -10 -19 -2 -98
-7 -174 -10 -77 -4 -151 -9 -165 -10 -14 -2 -70 -4 -123 -6 -54 -1 -98 -7 -98
-12 0 -12 391 -597 399 -597 11 1 158 197 458 613 l35 47 -52 -2 c-28 -2 -52
-4 -53 -5z"/>
<path d="M2652 2378 c-138 -245 -231 -412 -229 -414 1 -1 20 -5 42 -8 23 -4
50 -8 60 -10 19 -3 104 -16 150 -21 11 -2 40 -6 65 -10 25 -3 56 -8 70 -10 38
-5 171 -21 260 -30 30 -3 77 -8 104 -11 l49 -6 -29 39 c-16 21 -90 119 -164
218 -75 99 -169 227 -210 285 -40 58 -76 108 -80 113 -4 4 -43 -57 -88 -135z"/>
<path d="M6061 2427 c-51 -72 -288 -391 -405 -544 l-19 -25 59 6 c32 3 75 8
94 11 19 2 62 7 95 10 33 3 71 8 85 10 14 2 52 6 85 10 32 4 67 8 76 10 9 2
40 6 69 10 29 4 60 8 69 10 9 1 51 8 94 15 42 7 77 14 77 15 0 1 -56 101 -123
221 -182 322 -189 334 -190 334 -1 0 -31 -42 -66 -93z"/>
<path d="M600 2505 c0 -5 80 -155 99 -185 5 -8 37 -60 70 -115 34 -55 76 -125
95 -155 l35 -55 0 105 c0 58 3 132 6 165 l6 61 -73 38 c-40 22 -110 63 -155
92 -46 30 -83 51 -83 49z"/>
<path d="M8225 2483 c-22 -15 -92 -57 -155 -94 l-115 -66 4 -69 c3 -38 5 -111
5 -161 0 -51 3 -89 6 -85 37 44 308 502 297 502 -1 0 -20 -12 -42 -27z"/>
<path d="M577 2473 c2 -16 5 -46 8 -68 2 -22 12 -71 21 -110 18 -78 51 -119
174 -219 93 -76 96 -75 47 1 -88 137 -223 372 -234 406 -9 27 -21 20 -16 -10z"/>
<path d="M8251 2440 c-48 -90 -208 -358 -238 -397 -13 -18 -20 -33 -16 -33 24
0 232 186 244 217 10 26 13 43 35 162 21 115 15 126 -25 51z"/>
<path d="M3970 2469 c14 -26 214 -302 342 -471 l119 -158 134 180 c156 207
308 418 323 446 10 19 0 19 -458 19 -423 0 -467 -2 -460 -16z"/>
<path d="M3747 2308 c-52 -79 -145 -215 -206 -303 -60 -88 -109 -160 -108
-161 2 -2 68 -7 255 -19 60 -4 415 -16 544 -19 57 -1 84 2 80 9 -3 5 -53 73
-112 150 -58 77 -159 214 -225 305 -65 91 -121 169 -125 173 -4 4 -50 -57
-103 -135z"/>
<path d="M4965 2378 c-27 -39 -132 -181 -232 -316 -101 -134 -183 -247 -183
-251 0 -4 39 -6 88 -5 138 3 493 16 542 19 140 9 245 17 248 19 1 2 -6 14 -16
27 -10 13 -101 146 -202 294 -100 149 -185 273 -189 277 -3 4 -28 -25 -56 -64z"/>
<path d="M1010 2272 c0 -25 354 -530 368 -525 5 2 92 310 95 341 1 9 -33 26
-95 47 -115 39 -231 84 -310 119 -32 14 -58 22 -58 18z"/>
<path d="M7739 2230 c-63 -26 -169 -67 -236 -90 l-120 -42 27 -91 c15 -51 35
-128 45 -172 10 -44 22 -84 25 -88 10 -12 173 210 304 413 27 41 55 85 64 98
8 12 13 22 11 21 -2 0 -56 -22 -120 -49z"/>
<path d="M958 2228 c-2 -23 -6 -96 -7 -160 l-2 -117 71 -46 c86 -55 300 -168
307 -161 3 2 -18 33 -45 68 -27 34 -107 149 -177 253 -70 105 -131 194 -135
198 -4 5 -10 -11 -12 -35z"/>
<path d="M7839 2183 c-30 -48 -111 -168 -181 -266 -71 -99 -128 -181 -128
-182 0 -2 63 30 140 71 134 70 228 127 241 147 11 15 -3 302 -15 314 -1 2 -27
-36 -57 -84z"/>
<path d="M8150 2103 c-19 -20 -70 -65 -112 -100 -77 -64 -80 -69 -92 -153 -3
-19 -12 -57 -20 -83 l-14 -48 41 47 c23 26 54 65 69 88 15 22 32 46 37 52 5 7
7 15 4 18 -4 3 -2 6 3 6 5 0 18 16 28 35 11 19 24 35 29 35 6 0 8 3 4 6 -3 3
1 13 9 22 8 10 13 19 12 22 -1 3 10 18 25 34 15 16 24 32 22 36 -3 5 1 11 7
13 9 4 8 5 -2 6 -8 0 -31 -16 -50 -36z"/>
<path d="M1620 2051 c1 -19 417 -550 432 -551 11 0 208 394 200 401 -4 4 -65
19 -137 34 -71 14 -175 38 -230 52 -55 13 -107 26 -115 28 -8 2 -45 13 -82 23
-38 11 -68 17 -68 13z"/>
<path d="M7213 2049 c-64 -24 -537 -137 -595 -142 -10 -1 -18 -3 -18 -4 0 -8
202 -403 206 -403 23 0 446 542 433 554 -2 2 -14 0 -26 -5z"/>
<path d="M7300 2044 c0 -7 -14 -29 -30 -50 -17 -22 -78 -102 -137 -179 -104
-136 -188 -241 -240 -297 -13 -16 -21 -28 -15 -28 8 0 179 57 312 103 118 42
215 86 218 99 1 8 -18 86 -43 173 -43 148 -64 206 -65 179z"/>
<path d="M1516 1928 c-43 -142 -66 -223 -66 -236 0 -18 523 -212 536 -199 2 1
-7 14 -19 27 -48 52 -236 290 -317 402 -47 64 -88 117 -92 117 -4 1 -23 -50
-42 -111z"/>
<path d="M956 1845 c7 -59 9 -66 24 -127 11 -43 21 -55 104 -121 163 -131 254
-189 190 -121 -5 6 -26 31 -45 54 -18 23 -39 48 -45 54 -12 13 -188 245 -216
286 -18 25 -18 25 -12 -25z"/>
<path d="M1007 1843 c147 -197 323 -416 330 -409 3 2 6 26 8 53 2 43 15 159
19 174 0 3 -48 32 -108 63 -60 31 -143 79 -186 106 -42 28 -80 50 -84 50 -4 0
6 -17 21 -37z"/>
<path d="M7809 1840 c-31 -22 -114 -69 -183 -106 l-127 -67 5 -39 c3 -21 8
-74 12 -116 4 -42 7 -78 8 -79 7 -8 124 131 237 282 140 186 140 188 48 125z"/>
<path d="M7813 1756 c-51 -68 -130 -168 -175 -222 -72 -86 -78 -96 -47 -78 53
31 177 125 235 177 52 47 61 69 80 192 3 22 8 43 11 48 2 4 1 7 -4 7 -4 0 -49
-56 -100 -124z"/>
<path d="M2447 1858 c61 -82 320 -392 398 -477 66 -72 67 -73 77 -63 23 23
306 437 302 443 -2 4 -36 9 -76 13 -129 12 -344 38 -418 51 -14 2 -45 7 -70
10 -25 4 -83 13 -129 21 -101 17 -96 17 -84 2z"/>
<path d="M6376 1863 c-1 -1 -76 -14 -167 -27 -159 -23 -205 -30 -306 -42 -27
-3 -82 -9 -123 -14 -41 -5 -92 -11 -112 -12 -21 -1 -38 -4 -38 -6 0 -6 290
-425 306 -441 12 -13 17 -11 42 17 16 17 42 47 58 64 16 18 56 65 89 103 33
39 63 72 66 75 9 9 215 264 222 277 5 8 0 11 -13 10 -12 -1 -22 -3 -24 -4z"/>
<path d="M2320 1788 c-18 -35 -63 -119 -100 -188 -37 -69 -69 -133 -73 -142
-5 -14 16 -22 142 -52 213 -52 521 -114 526 -105 3 4 -9 22 -27 40 -66 71
-284 328 -352 416 -39 50 -74 92 -77 92 -4 1 -22 -27 -39 -61z"/>
<path d="M6425 1753 c-43 -54 -117 -143 -164 -198 -119 -138 -130 -151 -178
-204 -47 -51 -52 -61 -25 -55 9 2 98 20 197 39 167 34 455 102 463 110 4 3
-18 46 -156 305 -25 47 -48 89 -52 93 -4 4 -42 -36 -85 -90z"/>
<path d="M3448 1736 c17 -23 87 -111 92 -116 3 -3 46 -52 95 -110 131 -153
265 -300 274 -300 8 0 190 215 317 375 43 55 82 102 87 103 26 12 -6 20 -90
21 -157 3 -361 10 -458 16 -139 8 -267 16 -298 20 -19 2 -25 -1 -19 -9z"/>
<path d="M5388 1745 c-9 -9 -536 -33 -751 -34 l-98 -1 28 -37 c32 -44 281
-352 300 -371 7 -7 28 -32 48 -56 l36 -44 57 62 c31 33 59 63 62 66 14 14 148
169 243 281 74 88 102 129 93 132 -8 3 -16 4 -18 2z"/>
<path d="M3250 1597 c-47 -67 -118 -165 -157 -219 -40 -54 -73 -102 -73 -107
0 -8 176 -35 380 -56 88 -9 141 -14 210 -19 36 -3 97 -8 135 -11 39 -3 66 -2
60 2 -5 4 -28 28 -49 53 -21 25 -60 68 -85 95 -49 52 -271 310 -307 358 -12
15 -23 27 -25 27 -2 -1 -42 -56 -89 -123z"/>
<path d="M5390 1564 c-73 -86 -155 -181 -184 -212 -28 -31 -58 -63 -66 -72 -8
-9 -33 -36 -55 -59 l-40 -43 65 6 c36 3 101 8 145 11 96 7 171 14 205 20 14 2
54 7 90 10 36 3 75 7 87 9 12 3 50 8 85 11 35 4 77 10 94 13 l32 7 -163 228
-163 227 -132 -156z"/>
<path d="M950 1686 c0 -2 7 -9 15 -16 13 -11 14 -10 9 4 -5 14 -24 23 -24 12z"/>
<path d="M4344 1567 c-45 -56 -138 -168 -207 -249 l-126 -146 52 -4 c47 -3
673 -3 755 1 l33 1 -88 103 c-49 56 -142 167 -208 247 -65 80 -121 146 -124
147 -3 2 -43 -43 -87 -100z"/>
<path d="M1016 1618 c25 -42 58 -77 68 -71 6 3 8 3 4 -2 -11 -12 11 -47 25
-39 7 4 9 4 5 -1 -5 -5 21 -38 56 -74 35 -36 84 -86 108 -111 24 -25 53 -54
66 -65 l23 -19 -9 24 c-5 14 -13 47 -17 75 -4 33 -14 54 -28 65 -12 8 -53 37
-92 64 -38 27 -72 52 -75 55 -9 12 -131 111 -136 111 -3 0 -2 -6 2 -12z"/>
<path d="M7330 1593 c-67 -31 -297 -116 -402 -150 -74 -23 -89 -36 -70 -58 5
-6 30 -61 57 -122 27 -62 52 -113 56 -113 3 0 46 43 95 97 49 53 96 103 105
112 17 18 186 216 208 244 16 21 19 21 -49 -10z"/>
<path d="M7800 1593 c-13 -14 -40 -37 -60 -52 -19 -14 -43 -34 -54 -43 -10 -9
-51 -38 -91 -65 -61 -41 -72 -52 -73 -78 -1 -16 -6 -45 -11 -62 -5 -18 -6 -33
-2 -33 19 0 329 345 320 355 -2 2 -15 -8 -29 -22z"/>
<path d="M1429 1608 c-13 -43 -33 -213 -27 -229 5 -13 276 -156 403 -213 l40
-18 -26 29 c-14 15 -63 68 -109 118 -46 49 -126 140 -178 202 -85 102 -100
119 -103 111z"/>
<path d="M1496 1588 c10 -13 21 -25 24 -28 3 -3 27 -32 55 -65 52 -63 97 -114
181 -205 114 -123 134 -143 140 -137 11 11 106 232 108 250 1 14 -25 26 -129
61 -71 24 -187 66 -258 95 -70 28 -130 51 -134 51 -3 0 2 -10 13 -22z"/>
<path d="M7415 1597 c-6 -7 -30 -36 -55 -66 -25 -30 -52 -62 -60 -71 -8 -9
-46 -52 -85 -96 -86 -96 -88 -99 -150 -163 l-50 -52 65 27 c54 23 138 65 342
171 48 25 48 26 22 208 -6 46 -15 58 -29 42z"/>
<path d="M2096 1363 c-11 -11 -115 -231 -118 -250 -2 -13 23 -27 123 -63 109
-40 358 -118 425 -133 12 -2 -50 66 -145 159 -91 90 -191 193 -222 228 -31 36
-60 62 -63 59z"/>
<path d="M2186 1348 c10 -12 24 -28 29 -34 6 -7 98 -101 204 -208 186 -188
196 -196 213 -179 22 23 216 287 213 291 -3 3 -37 10 -132 27 -62 10 -351 76
-440 100 -52 14 -97 25 -100 25 -4 0 2 -10 13 -22z"/>
<path d="M6545 1334 c-71 -18 -217 -52 -324 -74 -107 -22 -196 -42 -199 -45
-3 -2 0 -10 5 -17 5 -7 56 -75 112 -152 l103 -138 31 28 c47 43 304 301 369
372 32 34 52 62 45 61 -6 0 -70 -16 -142 -35z"/>
<path d="M6726 1329 c-52 -58 -246 -257 -335 -342 -39 -38 -71 -70 -71 -72 0
-7 188 48 345 101 204 68 225 76 225 89 -1 5 -29 68 -63 139 l-62 129 -39 -44z"/>
<path d="M1396 1323 c-1 -2 1 -29 6 -61 7 -49 14 -62 51 -96 23 -22 33 -33 22
-25 -19 13 -19 13 -6 -4 8 -10 20 -16 27 -13 8 3 20 -1 28 -9 7 -8 66 -46 130
-86 64 -39 115 -73 113 -76 -6 -5 -94 47 -189 113 -43 29 -78 50 -77 46 0 -9
110 -102 219 -186 80 -62 85 -64 91 -43 5 15 0 28 -15 41 -11 10 -21 21 -21
25 0 9 -374 378 -379 374z"/>
<path d="M1471 1279 c51 -61 333 -332 345 -331 7 0 54 124 54 143 0 4 -73 43
-162 87 -90 44 -189 96 -221 116 l-58 35 42 -50z"/>
<path d="M7359 1223 c-59 -60 -136 -136 -173 -171 -36 -35 -66 -66 -66 -68 0
-11 22 0 91 44 94 61 99 64 99 59 0 -7 -139 -100 -202 -136 -46 -26 -58 -38
-58 -57 0 -13 2 -24 4 -24 2 0 21 13 42 30 130 100 224 180 224 190 0 4 29 30
64 56 41 29 67 56 71 73 9 35 18 111 13 111 -2 0 -51 -48 -109 -107z"/>
<path d="M7405 1311 c-25 -22 -375 -201 -395 -201 -19 0 -19 -20 1 -81 11 -35
23 -70 25 -77 5 -17 40 12 184 153 160 157 215 215 204 215 -5 0 -14 -4 -19
-9z"/>
<path d="M3195 1023 c94 -92 198 -192 232 -221 l61 -52 130 137 c71 76 142
154 158 173 16 19 33 38 39 42 5 4 -15 8 -45 9 -30 0 -62 2 -70 3 -8 2 -55 6
-105 10 -49 3 -99 8 -110 10 -11 2 -56 7 -100 10 -44 4 -87 9 -95 11 -8 2 -40
6 -71 10 -31 3 -65 7 -75 9 -11 2 -41 6 -69 10 l-50 7 170 -168z"/>
<path d="M5799 1186 c-2 -2 -31 -7 -64 -11 -70 -7 -118 -14 -160 -20 -36 -6
-88 -12 -175 -20 -36 -4 -81 -8 -100 -10 -19 -2 -82 -7 -140 -10 -58 -4 -107
-9 -109 -11 -5 -5 43 -58 197 -221 l125 -132 25 20 c37 29 133 118 257 239
157 152 182 180 164 180 -9 0 -18 -2 -20 -4z"/>
<path d="M2842 1047 c-56 -73 -110 -142 -121 -154 l-21 -22 58 -12 c31 -7 62
-14 67 -15 58 -15 354 -70 415 -78 91 -11 136 -19 143 -23 4 -2 7 0 7 5 0 5
-19 25 -42 45 -61 50 -114 100 -269 252 l-136 134 -101 -132z"/>
<path d="M5819 1082 c-109 -111 -231 -227 -308 -293 l-53 -46 63 9 c35 4 78
10 94 12 80 11 289 50 435 82 14 3 39 8 55 10 17 3 34 9 39 14 5 5 -18 41 -51
82 -33 40 -86 108 -117 151 -32 42 -59 77 -60 76 0 0 -44 -44 -97 -97z"/>
<path d="M4020 1091 c0 -14 385 -380 408 -388 10 -4 52 34 235 209 87 83 162
158 167 168 8 14 3 16 -33 13 -54 -4 -655 -4 -724 0 -29 2 -53 1 -53 -2z"/>
<path d="M3749 897 c-92 -95 -166 -173 -165 -174 1 -2 29 -5 62 -8 32 -3 82
-7 109 -10 189 -17 426 -28 545 -26 l35 1 -75 67 c-41 37 -134 125 -205 195
-72 70 -133 128 -135 128 -3 -1 -80 -78 -171 -173z"/>
<path d="M4879 1012 c-70 -72 -215 -211 -294 -280 l-60 -54 215 6 c118 4 231
8 250 10 19 3 71 7 115 10 76 6 168 16 171 20 3 2 -332 346 -337 346 -2 0 -29
-26 -60 -58z"/>
<path d="M1916 982 c-14 -37 -26 -73 -26 -79 0 -16 354 -180 450 -208 30 -9
36 -15 -83 83 -101 84 -259 224 -286 255 -9 9 -19 17 -22 17 -4 0 -19 -30 -33
-68z"/>
<path d="M6870 1011 c-66 -67 -312 -280 -347 -300 -10 -5 -15 -12 -12 -16 11
-10 415 164 455 196 9 7 5 29 -16 81 -15 40 -31 73 -36 74 -5 1 -25 -15 -44
-35z"/>
<path d="M2095 954 c101 -95 317 -274 331 -274 5 0 40 39 78 86 53 67 65 88
55 95 -8 5 -19 9 -26 9 -20 0 -322 97 -422 135 -51 19 -96 35 -99 35 -4 -1 34
-39 83 -86z"/>
<path d="M6665 975 c-99 -35 -224 -75 -277 -90 -113 -31 -111 -20 -15 -137
l64 -77 99 81 c85 70 165 139 298 261 17 15 26 27 21 26 -6 0 -91 -29 -190
-64z"/>
<path d="M7089 963 c-13 -17 -13 -17 6 -3 11 8 22 16 24 17 2 2 0 3 -6 3 -6 0
-17 -8 -24 -17z"/>
<path d="M1870 841 c0 -25 12 -36 99 -95 55 -36 105 -66 110 -66 6 0 11 -4 11
-9 0 -5 18 -16 40 -25 22 -9 40 -20 40 -26 0 -5 7 -6 17 -3 12 5 14 3 8 -7 -5
-9 -4 -11 3 -6 7 4 12 2 12 -4 0 -6 5 -8 10 -5 6 3 10 2 10 -4 0 -6 13 -17 30
-26 38 -20 44 -19 23 3 -10 10 -24 17 -31 14 -7 -2 -12 0 -10 6 2 5 -39 40
-91 76 -51 37 -99 72 -106 79 -7 7 -25 21 -41 32 -31 22 -99 84 -74 68 8 -6
65 -48 125 -95 61 -47 144 -108 186 -136 l76 -51 42 43 41 42 -107 43 c-60 24
-155 66 -213 93 -135 64 -153 72 -167 69 -6 -1 -14 3 -18 9 -12 19 -25 10 -25
-19z"/>
<path d="M6940 838 c-47 -41 -271 -209 -309 -231 -50 -30 -35 -13 27 29 31 21
86 61 122 89 177 136 179 140 49 78 -62 -31 -168 -77 -233 -104 -66 -27 -122
-52 -125 -54 -2 -3 13 -23 34 -45 37 -38 40 -39 63 -24 13 9 26 13 29 10 11
-11 230 117 350 205 40 30 50 43 46 59 -7 26 -11 25 -53 -12z"/>
<path d="M2578 726 l-77 -90 107 -34 c118 -36 447 -122 470 -122 8 0 -20 25
-63 55 -42 30 -131 99 -197 153 -67 53 -130 104 -142 113 -20 15 -24 13 -98
-75z"/>
<path d="M2755 792 c35 -32 87 -76 140 -117 21 -16 61 -48 89 -71 77 -60 168
-124 179 -124 12 0 75 50 175 139 80 71 80 75 -8 85 -98 11 -415 70 -544 101
l-60 14 29 -27z"/>
<path d="M6070 804 c-87 -23 -292 -63 -460 -90 -85 -14 -156 -27 -158 -28 -2
-3 161 -147 210 -185 14 -12 32 -21 40 -21 15 0 298 216 378 289 30 27 53 50
50 49 -3 0 -30 -7 -60 -14z"/>
<path d="M6169 789 c-51 -46 -267 -217 -327 -258 -34 -24 -61 -46 -58 -48 2
-2 52 8 112 22 60 15 118 28 129 31 27 5 283 80 313 91 l24 9 -36 40 c-20 21
-53 60 -73 86 -21 26 -43 47 -49 48 -6 0 -22 -10 -35 -21z"/>
<path d="M3606 653 c82 -68 204 -160 287 -218 111 -76 103 -76 195 -9 94 69
242 186 242 193 0 4 -33 7 -72 7 -87 0 -393 14 -418 19 -10 2 -58 6 -108 10
-49 3 -102 8 -118 11 l-29 4 21 -17z"/>
<path d="M5229 666 c-2 -2 -42 -7 -89 -10 -47 -4 -101 -9 -120 -11 -43 -5
-297 -17 -402 -19 -42 -1 -80 -4 -83 -7 -10 -11 307 -249 332 -249 23 0 393
276 393 292 0 8 -23 11 -31 4z"/>
<path d="M3414 581 c-50 -42 -108 -90 -130 -107 l-39 -31 75 -11 c41 -7 86
-14 99 -16 13 -3 49 -8 80 -11 31 -4 63 -8 71 -11 18 -4 187 -23 280 -30 l65
-5 -48 33 c-27 18 -103 74 -170 123 -66 50 -137 102 -156 116 l-36 27 -91 -77z"/>
<path d="M5260 584 c-52 -41 -144 -108 -205 -150 l-110 -76 80 6 c95 8 196 19
280 31 17 3 46 7 65 9 73 10 127 18 184 30 l59 11 -94 77 c-52 41 -103 84
-114 94 -48 45 -44 46 -145 -32z"/>
<path d="M2458 603 c-1 -5 -20 -23 -41 -41 l-38 -32 26 -12 c14 -6 25 -15 25
-19 0 -9 -29 -1 -48 14 -7 5 -15 7 -19 4 -10 -11 61 -36 73 -26 7 5 34 -1 73
-16 64 -26 349 -125 360 -125 3 0 -32 23 -79 51 -87 52 -246 157 -289 190 -25
20 -37 23 -43 12z"/>
<path d="M6300 548 c-84 -59 -242 -159 -290 -185 -14 -7 -20 -13 -13 -13 11 0
240 79 342 119 30 11 56 19 58 17 6 -6 -309 -125 -386 -146 -47 -12 -45 -28 4
-31 46 -4 402 154 398 176 -2 14 25 28 39 19 7 -4 8 -3 4 4 -4 7 -1 12 8 12 9
0 16 2 16 5 0 6 -80 79 -89 81 -3 1 -44 -25 -91 -58z"/>
<path d="M2535 592 c19 -17 251 -169 321 -210 38 -23 77 -42 84 -42 18 0 171
92 165 99 -3 3 -11 6 -18 8 -7 1 -34 7 -62 14 -84 19 -378 100 -410 113 -43
18 -92 29 -80 18z"/>
<path d="M4320 519 c-58 -45 -133 -100 -167 -122 -34 -23 -60 -44 -57 -46 8
-8 72 -10 334 -10 292 0 336 2 333 13 -1 4 -41 34 -89 67 -79 54 -162 115
-174 129 -11 13 -63 50 -69 50 -3 -1 -53 -37 -111 -81z"/>
<path d="M6270 580 c-102 -34 -194 -60 -340 -96 -179 -44 -181 -45 -144 -71
47 -33 124 -73 139 -73 24 0 405 241 405 256 0 5 4 6 -60 -16z"/>
<path d="M2440 482 c0 -13 139 -81 310 -152 61 -25 106 -29 137 -12 7 4 -31
22 -90 42 -81 27 -255 91 -344 127 -7 3 -13 0 -13 -5z"/>
<path d="M3140 380 c-25 -16 -62 -37 -82 -46 -21 -9 -38 -20 -38 -24 0 -8 310
-80 411 -95 24 -4 66 -11 93 -16 27 -5 51 -9 55 -9 3 0 -43 27 -104 58 -60 32
-147 82 -193 110 -46 29 -87 52 -90 51 -4 0 -27 -13 -52 -29z"/>
<path d="M3270 405 c0 -15 364 -215 390 -215 17 0 210 95 239 118 l23 19 -48
1 c-26 1 -59 4 -73 6 -14 3 -57 7 -94 11 -37 3 -76 8 -85 10 -17 3 -86 12
-147 19 -16 2 -59 9 -95 16 -103 18 -110 19 -110 15z"/>
<path d="M5500 394 c-92 -17 -113 -20 -220 -34 -47 -6 -101 -13 -120 -15 -55
-7 -142 -16 -177 -17 -18 -1 -33 -4 -33 -8 0 -9 114 -73 189 -106 55 -24 67
-26 94 -16 38 14 302 165 337 192 29 22 30 22 -70 4z"/>
<path d="M5560 346 c-58 -35 -145 -85 -195 -111 -79 -41 -85 -47 -50 -41 218
35 541 108 523 119 -21 13 -171 97 -172 97 -1 0 -48 -29 -106 -64z"/>
<path d="M4096 309 c11 -19 305 -170 332 -171 20 -1 139 55 259 122 l85 47
-283 -1 c-156 -1 -309 1 -340 4 -32 3 -56 2 -53 -1z"/>
<path d="M2932 290 c-18 -4 -35 -10 -38 -12 -4 -5 259 -92 366 -122 75 -21 74
-14 -2 14 -35 13 -114 47 -175 76 -62 30 -114 54 -115 53 -2 -1 -18 -5 -36 -9z"/>
<path d="M3873 237 c-67 -34 -122 -65 -123 -69 0 -5 3 -7 8 -6 8 2 166 -12
195 -18 16 -3 237 -14 348 -17 27 -1 49 1 49 6 0 4 -6 7 -13 7 -17 0 -191 85
-265 129 -29 17 -58 31 -65 30 -7 -1 -67 -29 -134 -62z"/>
<path d="M4680 213 c-91 -47 -166 -86 -167 -87 -1 -1 19 -1 45 0 110 5 320 16
357 19 151 13 191 18 200 26 5 6 4 9 -3 9 -16 0 -179 78 -214 102 -14 10 -32
18 -40 17 -7 -1 -87 -39 -178 -86z"/>
<path d="M5861 284 c-40 -17 -44 -17 -35 -2 4 6 3 8 -3 5 -5 -3 -20 -8 -34
-11 -13 -3 -34 -7 -46 -10 -13 -4 -31 -8 -40 -10 -10 -2 -48 -11 -86 -20 -37
-9 -82 -18 -100 -21 -17 -3 -39 -8 -47 -10 -8 -2 -32 -6 -52 -9 -21 -3 -57
-10 -80 -15 -23 -6 -45 -8 -49 -5 -4 2 -10 0 -13 -4 -7 -12 62 -32 159 -46 11
-2 44 5 73 15 29 10 58 17 65 15 7 -1 8 -1 3 2 -4 2 39 25 95 49 57 25 108 49
114 54 5 5 16 9 24 9 26 0 -1 -15 -104 -60 -160 -68 -150 -67 97 12 87 28 155
55 152 60 -3 5 -8 7 -11 4 -3 -2 -15 -1 -27 4 -14 5 -34 3 -55 -6z"/>
<path d="M3040 284 c0 -12 325 -152 368 -158 18 -3 118 15 164 29 17 6 17 19
0 20 -9 1 -98 15 -122 20 -9 2 -35 6 -56 9 -22 4 -86 18 -144 31 -58 14 -114
27 -125 30 -11 2 -35 8 -52 14 -18 5 -33 7 -33 5z"/>
<path d="M3640 143 c-8 -4 -49 -14 -90 -24 -41 -9 -63 -18 -48 -18 15 -1 38
-5 53 -11 14 -5 67 -15 118 -21 93 -11 132 -16 132 -19 0 -1 16 -3 35 -5 19
-1 62 -8 94 -14 45 -8 63 -8 70 0 8 9 8 10 -1 5 -6 -3 -14 -2 -18 4 -4 6 -10
8 -15 5 -5 -3 -11 -1 -15 5 -3 5 -15 10 -25 10 -11 0 -72 20 -136 45 -118 46
-127 48 -154 38z"/>
<path d="M3785 129 c22 -10 98 -38 169 -61 l129 -42 104 27 c56 15 118 33 135
41 32 14 29 14 -67 16 -55 1 -116 3 -135 5 -19 2 -75 6 -125 9 -96 7 -159 13
-215 20 l-35 5 40 -20z"/>
<path d="M5089 146 c-4 -4 -80 -11 -214 -21 -161 -12 -192 -14 -280 -15 l-90
-1 62 -24 c35 -13 98 -32 141 -41 l79 -17 124 42 c124 42 213 79 193 80 -6 1
-13 -1 -15 -3z"/>
<path d="M5120 125 c-30 -13 -86 -34 -125 -46 -106 -33 -125 -41 -125 -51 0
-5 8 -7 18 -4 9 3 33 7 52 10 19 3 49 8 65 11 56 9 90 14 149 21 71 8 237 41
216 44 -30 3 -66 11 -123 25 -70 18 -59 19 -127 -10z"/>
<path d="M4320 66 c-125 -38 -115 -36 -141 -36 -11 0 -18 -4 -14 -10 3 -5 13
-6 22 -3 12 5 14 3 8 -8 -7 -12 -6 -12 7 -1 13 10 17 10 21 0 4 -10 6 -10 6 0
1 6 10 12 22 12 13 0 18 -4 13 -13 -5 -7 0 -6 11 3 11 9 16 10 11 2 -4 -6 -3
-12 3 -12 5 0 12 6 14 13 4 9 6 9 6 0 1 -7 6 -13 12 -13 5 0 8 4 5 8 -4 7 54
8 62 2 8 -7 28 -4 34 5 5 6 8 5 8 -4 0 -10 3 -11 14 -2 10 8 16 9 21 1 3 -5
11 -10 16 -10 6 0 8 4 5 8 -3 5 1 9 9 9 8 0 11 -5 8 -11 -4 -6 1 -5 10 3 13
10 17 10 17 1 0 -8 4 -9 13 -3 14 11 27 11 45 0 6 -5 12 -4 12 1 0 6 23 9 50
8 73 -3 69 8 -6 22 -35 7 -97 23 -138 37 -41 14 -76 25 -78 24 -2 -1 -50 -16
-108 -33z"/>
</g>
</svg>
